G04 #@! TF.FileFunction,Legend,Bot*
%FSLAX46Y46*%
G04 Gerber Fmt 4.6, Leading zero omitted, Abs format (unit mm)*
G04 Created by KiCad (PCBNEW (2015-08-16 BZR 6097, Git b384c94)-product) date 12/8/2015 8:31:07 PM*
%MOMM*%
G01*
G04 APERTURE LIST*
%ADD10C,0.100000*%
%ADD11C,0.300000*%
G04 APERTURE END LIST*
D10*
D11*
X145865999Y-92047143D02*
X145651713Y-92118571D01*
X145294570Y-92118571D01*
X145151713Y-92047143D01*
X145080284Y-91975714D01*
X145008856Y-91832857D01*
X145008856Y-91690000D01*
X145080284Y-91547143D01*
X145151713Y-91475714D01*
X145294570Y-91404286D01*
X145580284Y-91332857D01*
X145723142Y-91261429D01*
X145794570Y-91190000D01*
X145865999Y-91047143D01*
X145865999Y-90904286D01*
X145794570Y-90761429D01*
X145723142Y-90690000D01*
X145580284Y-90618571D01*
X145223142Y-90618571D01*
X145008856Y-90690000D01*
X144365999Y-92118571D02*
X144365999Y-91118571D01*
X144365999Y-90618571D02*
X144437428Y-90690000D01*
X144365999Y-90761429D01*
X144294571Y-90690000D01*
X144365999Y-90618571D01*
X144365999Y-90761429D01*
X143651713Y-92118571D02*
X143651713Y-91118571D01*
X143651713Y-91261429D02*
X143580285Y-91190000D01*
X143437427Y-91118571D01*
X143223142Y-91118571D01*
X143080285Y-91190000D01*
X143008856Y-91332857D01*
X143008856Y-92118571D01*
X143008856Y-91332857D02*
X142937427Y-91190000D01*
X142794570Y-91118571D01*
X142580285Y-91118571D01*
X142437427Y-91190000D01*
X142365999Y-91332857D01*
X142365999Y-92118571D01*
X141651713Y-91118571D02*
X141651713Y-92618571D01*
X141651713Y-91190000D02*
X141508856Y-91118571D01*
X141223142Y-91118571D01*
X141080285Y-91190000D01*
X141008856Y-91261429D01*
X140937427Y-91404286D01*
X140937427Y-91832857D01*
X141008856Y-91975714D01*
X141080285Y-92047143D01*
X141223142Y-92118571D01*
X141508856Y-92118571D01*
X141651713Y-92047143D01*
X140080284Y-92118571D02*
X140223142Y-92047143D01*
X140294570Y-91904286D01*
X140294570Y-90618571D01*
X138937428Y-92047143D02*
X139080285Y-92118571D01*
X139365999Y-92118571D01*
X139508856Y-92047143D01*
X139580285Y-91904286D01*
X139580285Y-91332857D01*
X139508856Y-91190000D01*
X139365999Y-91118571D01*
X139080285Y-91118571D01*
X138937428Y-91190000D01*
X138865999Y-91332857D01*
X138865999Y-91475714D01*
X139580285Y-91618571D01*
X136223142Y-91975714D02*
X136294571Y-92047143D01*
X136508857Y-92118571D01*
X136651714Y-92118571D01*
X136865999Y-92047143D01*
X137008857Y-91904286D01*
X137080285Y-91761429D01*
X137151714Y-91475714D01*
X137151714Y-91261429D01*
X137080285Y-90975714D01*
X137008857Y-90832857D01*
X136865999Y-90690000D01*
X136651714Y-90618571D01*
X136508857Y-90618571D01*
X136294571Y-90690000D01*
X136223142Y-90761429D01*
X135580285Y-92118571D02*
X135580285Y-90618571D01*
X135008857Y-90618571D01*
X134865999Y-90690000D01*
X134794571Y-90761429D01*
X134723142Y-90904286D01*
X134723142Y-91118571D01*
X134794571Y-91261429D01*
X134865999Y-91332857D01*
X135008857Y-91404286D01*
X135580285Y-91404286D01*
X133365999Y-92118571D02*
X134080285Y-92118571D01*
X134080285Y-90618571D01*
X132865999Y-92118571D02*
X132865999Y-90618571D01*
X132508856Y-90618571D01*
X132294571Y-90690000D01*
X132151713Y-90832857D01*
X132080285Y-90975714D01*
X132008856Y-91261429D01*
X132008856Y-91475714D01*
X132080285Y-91761429D01*
X132151713Y-91904286D01*
X132294571Y-92047143D01*
X132508856Y-92118571D01*
X132865999Y-92118571D01*
X130223142Y-92118571D02*
X130223142Y-91118571D01*
X130223142Y-91404286D02*
X130151714Y-91261429D01*
X130080285Y-91190000D01*
X129937428Y-91118571D01*
X129794571Y-91118571D01*
X128723143Y-92047143D02*
X128866000Y-92118571D01*
X129151714Y-92118571D01*
X129294571Y-92047143D01*
X129366000Y-91904286D01*
X129366000Y-91332857D01*
X129294571Y-91190000D01*
X129151714Y-91118571D01*
X128866000Y-91118571D01*
X128723143Y-91190000D01*
X128651714Y-91332857D01*
X128651714Y-91475714D01*
X129366000Y-91618571D01*
X128151714Y-91118571D02*
X127794571Y-92118571D01*
X127437429Y-91118571D01*
X124937429Y-92118571D02*
X125794572Y-92118571D01*
X125366000Y-92118571D02*
X125366000Y-90618571D01*
X125508857Y-90832857D01*
X125651715Y-90975714D01*
X125794572Y-91047143D01*
X124294572Y-91975714D02*
X124223144Y-92047143D01*
X124294572Y-92118571D01*
X124366001Y-92047143D01*
X124294572Y-91975714D01*
X124294572Y-92118571D01*
X122937429Y-92118571D02*
X122937429Y-91332857D01*
X123008858Y-91190000D01*
X123151715Y-91118571D01*
X123437429Y-91118571D01*
X123580286Y-91190000D01*
X122937429Y-92047143D02*
X123080286Y-92118571D01*
X123437429Y-92118571D01*
X123580286Y-92047143D01*
X123651715Y-91904286D01*
X123651715Y-91761429D01*
X123580286Y-91618571D01*
X123437429Y-91547143D01*
X123080286Y-91547143D01*
X122937429Y-91475714D01*
M02*
