G04 #@! TF.FileFunction,Legend,Bot*
%FSLAX46Y46*%
G04 Gerber Fmt 4.6, Leading zero omitted, Abs format (unit mm)*
G04 Created by KiCad (PCBNEW (2015-08-16 BZR 6097, Git b384c94)-product) date 11/18/2015 5:03:30 PM*
%MOMM*%
G01*
G04 APERTURE LIST*
%ADD10C,0.100000*%
%ADD11C,0.300000*%
G04 APERTURE END LIST*
D10*
D11*
X151187428Y-92047143D02*
X150973142Y-92118571D01*
X150615999Y-92118571D01*
X150473142Y-92047143D01*
X150401713Y-91975714D01*
X150330285Y-91832857D01*
X150330285Y-91690000D01*
X150401713Y-91547143D01*
X150473142Y-91475714D01*
X150615999Y-91404286D01*
X150901713Y-91332857D01*
X151044571Y-91261429D01*
X151115999Y-91190000D01*
X151187428Y-91047143D01*
X151187428Y-90904286D01*
X151115999Y-90761429D01*
X151044571Y-90690000D01*
X150901713Y-90618571D01*
X150544571Y-90618571D01*
X150330285Y-90690000D01*
X149901714Y-91118571D02*
X149330285Y-91118571D01*
X149687428Y-90618571D02*
X149687428Y-91904286D01*
X149616000Y-92047143D01*
X149473142Y-92118571D01*
X149330285Y-92118571D01*
X148187428Y-92118571D02*
X148187428Y-91332857D01*
X148258857Y-91190000D01*
X148401714Y-91118571D01*
X148687428Y-91118571D01*
X148830285Y-91190000D01*
X148187428Y-92047143D02*
X148330285Y-92118571D01*
X148687428Y-92118571D01*
X148830285Y-92047143D01*
X148901714Y-91904286D01*
X148901714Y-91761429D01*
X148830285Y-91618571D01*
X148687428Y-91547143D01*
X148330285Y-91547143D01*
X148187428Y-91475714D01*
X146830285Y-92047143D02*
X146973142Y-92118571D01*
X147258856Y-92118571D01*
X147401714Y-92047143D01*
X147473142Y-91975714D01*
X147544571Y-91832857D01*
X147544571Y-91404286D01*
X147473142Y-91261429D01*
X147401714Y-91190000D01*
X147258856Y-91118571D01*
X146973142Y-91118571D01*
X146830285Y-91190000D01*
X146187428Y-92118571D02*
X146187428Y-90618571D01*
X145544571Y-92118571D02*
X145544571Y-91332857D01*
X145616000Y-91190000D01*
X145758857Y-91118571D01*
X145973142Y-91118571D01*
X146116000Y-91190000D01*
X146187428Y-91261429D01*
X144258857Y-92047143D02*
X144401714Y-92118571D01*
X144687428Y-92118571D01*
X144830285Y-92047143D01*
X144901714Y-91904286D01*
X144901714Y-91332857D01*
X144830285Y-91190000D01*
X144687428Y-91118571D01*
X144401714Y-91118571D01*
X144258857Y-91190000D01*
X144187428Y-91332857D01*
X144187428Y-91475714D01*
X144901714Y-91618571D01*
X143473143Y-90618571D02*
X143616000Y-90904286D01*
X142901714Y-92047143D02*
X142758857Y-92118571D01*
X142473142Y-92118571D01*
X142330285Y-92047143D01*
X142258857Y-91904286D01*
X142258857Y-91832857D01*
X142330285Y-91690000D01*
X142473142Y-91618571D01*
X142687428Y-91618571D01*
X142830285Y-91547143D01*
X142901714Y-91404286D01*
X142901714Y-91332857D01*
X142830285Y-91190000D01*
X142687428Y-91118571D01*
X142473142Y-91118571D01*
X142330285Y-91190000D01*
X140544571Y-92047143D02*
X140330285Y-92118571D01*
X139973142Y-92118571D01*
X139830285Y-92047143D01*
X139758856Y-91975714D01*
X139687428Y-91832857D01*
X139687428Y-91690000D01*
X139758856Y-91547143D01*
X139830285Y-91475714D01*
X139973142Y-91404286D01*
X140258856Y-91332857D01*
X140401714Y-91261429D01*
X140473142Y-91190000D01*
X140544571Y-91047143D01*
X140544571Y-90904286D01*
X140473142Y-90761429D01*
X140401714Y-90690000D01*
X140258856Y-90618571D01*
X139901714Y-90618571D01*
X139687428Y-90690000D01*
X139044571Y-92118571D02*
X139044571Y-91118571D01*
X139044571Y-90618571D02*
X139116000Y-90690000D01*
X139044571Y-90761429D01*
X138973143Y-90690000D01*
X139044571Y-90618571D01*
X139044571Y-90761429D01*
X138330285Y-92118571D02*
X138330285Y-91118571D01*
X138330285Y-91261429D02*
X138258857Y-91190000D01*
X138115999Y-91118571D01*
X137901714Y-91118571D01*
X137758857Y-91190000D01*
X137687428Y-91332857D01*
X137687428Y-92118571D01*
X137687428Y-91332857D02*
X137615999Y-91190000D01*
X137473142Y-91118571D01*
X137258857Y-91118571D01*
X137115999Y-91190000D01*
X137044571Y-91332857D01*
X137044571Y-92118571D01*
X136330285Y-91118571D02*
X136330285Y-92618571D01*
X136330285Y-91190000D02*
X136187428Y-91118571D01*
X135901714Y-91118571D01*
X135758857Y-91190000D01*
X135687428Y-91261429D01*
X135615999Y-91404286D01*
X135615999Y-91832857D01*
X135687428Y-91975714D01*
X135758857Y-92047143D01*
X135901714Y-92118571D01*
X136187428Y-92118571D01*
X136330285Y-92047143D01*
X134758856Y-92118571D02*
X134901714Y-92047143D01*
X134973142Y-91904286D01*
X134973142Y-90618571D01*
X133616000Y-92047143D02*
X133758857Y-92118571D01*
X134044571Y-92118571D01*
X134187428Y-92047143D01*
X134258857Y-91904286D01*
X134258857Y-91332857D01*
X134187428Y-91190000D01*
X134044571Y-91118571D01*
X133758857Y-91118571D01*
X133616000Y-91190000D01*
X133544571Y-91332857D01*
X133544571Y-91475714D01*
X134258857Y-91618571D01*
X130901714Y-91975714D02*
X130973143Y-92047143D01*
X131187429Y-92118571D01*
X131330286Y-92118571D01*
X131544571Y-92047143D01*
X131687429Y-91904286D01*
X131758857Y-91761429D01*
X131830286Y-91475714D01*
X131830286Y-91261429D01*
X131758857Y-90975714D01*
X131687429Y-90832857D01*
X131544571Y-90690000D01*
X131330286Y-90618571D01*
X131187429Y-90618571D01*
X130973143Y-90690000D01*
X130901714Y-90761429D01*
X130258857Y-92118571D02*
X130258857Y-90618571D01*
X129687429Y-90618571D01*
X129544571Y-90690000D01*
X129473143Y-90761429D01*
X129401714Y-90904286D01*
X129401714Y-91118571D01*
X129473143Y-91261429D01*
X129544571Y-91332857D01*
X129687429Y-91404286D01*
X130258857Y-91404286D01*
X128044571Y-92118571D02*
X128758857Y-92118571D01*
X128758857Y-90618571D01*
X127544571Y-92118571D02*
X127544571Y-90618571D01*
X127187428Y-90618571D01*
X126973143Y-90690000D01*
X126830285Y-90832857D01*
X126758857Y-90975714D01*
X126687428Y-91261429D01*
X126687428Y-91475714D01*
X126758857Y-91761429D01*
X126830285Y-91904286D01*
X126973143Y-92047143D01*
X127187428Y-92118571D01*
X127544571Y-92118571D01*
X124901714Y-92118571D02*
X124901714Y-91118571D01*
X124901714Y-91404286D02*
X124830286Y-91261429D01*
X124758857Y-91190000D01*
X124616000Y-91118571D01*
X124473143Y-91118571D01*
X123401715Y-92047143D02*
X123544572Y-92118571D01*
X123830286Y-92118571D01*
X123973143Y-92047143D01*
X124044572Y-91904286D01*
X124044572Y-91332857D01*
X123973143Y-91190000D01*
X123830286Y-91118571D01*
X123544572Y-91118571D01*
X123401715Y-91190000D01*
X123330286Y-91332857D01*
X123330286Y-91475714D01*
X124044572Y-91618571D01*
X122830286Y-91118571D02*
X122473143Y-92118571D01*
X122116001Y-91118571D01*
X119616001Y-92118571D02*
X120473144Y-92118571D01*
X120044572Y-92118571D02*
X120044572Y-90618571D01*
X120187429Y-90832857D01*
X120330287Y-90975714D01*
X120473144Y-91047143D01*
X118973144Y-91975714D02*
X118901716Y-92047143D01*
X118973144Y-92118571D01*
X119044573Y-92047143D01*
X118973144Y-91975714D01*
X118973144Y-92118571D01*
X117616001Y-92118571D02*
X117616001Y-91332857D01*
X117687430Y-91190000D01*
X117830287Y-91118571D01*
X118116001Y-91118571D01*
X118258858Y-91190000D01*
X117616001Y-92047143D02*
X117758858Y-92118571D01*
X118116001Y-92118571D01*
X118258858Y-92047143D01*
X118330287Y-91904286D01*
X118330287Y-91761429D01*
X118258858Y-91618571D01*
X118116001Y-91547143D01*
X117758858Y-91547143D01*
X117616001Y-91475714D01*
M02*
