G04 #@! TF.FileFunction,Legend,Top*
%FSLAX46Y46*%
G04 Gerber Fmt 4.6, Leading zero omitted, Abs format (unit mm)*
G04 Created by KiCad (PCBNEW (2015-08-16 BZR 6097, Git b384c94)-product) date 12/8/2015 8:31:07 PM*
%MOMM*%
G01*
G04 APERTURE LIST*
%ADD10C,0.100000*%
%ADD11C,0.150000*%
G04 APERTURE END LIST*
D10*
D11*
X124872714Y-82764286D02*
X124872714Y-82097619D01*
X125110810Y-83145238D02*
X125348905Y-82430952D01*
X124729857Y-82430952D01*
X124396524Y-83002381D02*
X124348905Y-83050000D01*
X124253667Y-83097619D01*
X124015571Y-83097619D01*
X123920333Y-83050000D01*
X123872714Y-83002381D01*
X123825095Y-82907143D01*
X123825095Y-82811905D01*
X123872714Y-82669048D01*
X124444143Y-82097619D01*
X123825095Y-82097619D01*
X119665714Y-82764286D02*
X119665714Y-82097619D01*
X119903810Y-83145238D02*
X120141905Y-82430952D01*
X119522857Y-82430952D01*
X118713333Y-82764286D02*
X118713333Y-82097619D01*
X118951429Y-83145238D02*
X119189524Y-82430952D01*
X118570476Y-82430952D01*
X122205714Y-82764286D02*
X122205714Y-82097619D01*
X122443810Y-83145238D02*
X122681905Y-82430952D01*
X122062857Y-82430952D01*
X121777143Y-83097619D02*
X121158095Y-83097619D01*
X121491429Y-82716667D01*
X121348571Y-82716667D01*
X121253333Y-82669048D01*
X121205714Y-82621429D01*
X121158095Y-82526190D01*
X121158095Y-82288095D01*
X121205714Y-82192857D01*
X121253333Y-82145238D01*
X121348571Y-82097619D01*
X121634286Y-82097619D01*
X121729524Y-82145238D01*
X121777143Y-82192857D01*
X112244143Y-83907238D02*
X112291762Y-83954857D01*
X112339381Y-84097714D01*
X112339381Y-84192952D01*
X112291762Y-84335810D01*
X112196524Y-84431048D01*
X112101286Y-84478667D01*
X111910810Y-84526286D01*
X111767952Y-84526286D01*
X111577476Y-84478667D01*
X111482238Y-84431048D01*
X111387000Y-84335810D01*
X111339381Y-84192952D01*
X111339381Y-84097714D01*
X111387000Y-83954857D01*
X111434619Y-83907238D01*
X112339381Y-83002476D02*
X112339381Y-83478667D01*
X111339381Y-83478667D01*
X112339381Y-82097714D02*
X111863190Y-82431048D01*
X112339381Y-82669143D02*
X111339381Y-82669143D01*
X111339381Y-82288190D01*
X111387000Y-82192952D01*
X111434619Y-82145333D01*
X111529857Y-82097714D01*
X111672714Y-82097714D01*
X111767952Y-82145333D01*
X111815571Y-82192952D01*
X111863190Y-82288190D01*
X111863190Y-82669143D01*
X113752381Y-84335810D02*
X113752381Y-84145333D01*
X113800000Y-84050095D01*
X113895238Y-83954857D01*
X114085714Y-83907238D01*
X114419048Y-83907238D01*
X114609524Y-83954857D01*
X114704762Y-84050095D01*
X114752381Y-84145333D01*
X114752381Y-84335810D01*
X114704762Y-84431048D01*
X114609524Y-84526286D01*
X114419048Y-84573905D01*
X114085714Y-84573905D01*
X113895238Y-84526286D01*
X113800000Y-84431048D01*
X113752381Y-84335810D01*
X114228571Y-83478667D02*
X114228571Y-83145333D01*
X114752381Y-83002476D02*
X114752381Y-83478667D01*
X113752381Y-83478667D01*
X113752381Y-83002476D01*
X113847619Y-82621524D02*
X113800000Y-82573905D01*
X113752381Y-82478667D01*
X113752381Y-82240571D01*
X113800000Y-82145333D01*
X113847619Y-82097714D01*
X113942857Y-82050095D01*
X114038095Y-82050095D01*
X114180952Y-82097714D01*
X114752381Y-82669143D01*
X114752381Y-82050095D01*
X116292381Y-84335810D02*
X116292381Y-84145333D01*
X116340000Y-84050095D01*
X116435238Y-83954857D01*
X116625714Y-83907238D01*
X116959048Y-83907238D01*
X117149524Y-83954857D01*
X117244762Y-84050095D01*
X117292381Y-84145333D01*
X117292381Y-84335810D01*
X117244762Y-84431048D01*
X117149524Y-84526286D01*
X116959048Y-84573905D01*
X116625714Y-84573905D01*
X116435238Y-84526286D01*
X116340000Y-84431048D01*
X116292381Y-84335810D01*
X116768571Y-83478667D02*
X116768571Y-83145333D01*
X117292381Y-83002476D02*
X117292381Y-83478667D01*
X116292381Y-83478667D01*
X116292381Y-83002476D01*
X117292381Y-82050095D02*
X117292381Y-82621524D01*
X117292381Y-82335810D02*
X116292381Y-82335810D01*
X116435238Y-82431048D01*
X116530476Y-82526286D01*
X116578095Y-82621524D01*
X127936524Y-83097619D02*
X127317476Y-83097619D01*
X127650810Y-82716667D01*
X127507952Y-82716667D01*
X127412714Y-82669048D01*
X127365095Y-82621429D01*
X127317476Y-82526190D01*
X127317476Y-82288095D01*
X127365095Y-82192857D01*
X127412714Y-82145238D01*
X127507952Y-82097619D01*
X127793667Y-82097619D01*
X127888905Y-82145238D01*
X127936524Y-82192857D01*
X126412714Y-83097619D02*
X126888905Y-83097619D01*
X126936524Y-82621429D01*
X126888905Y-82669048D01*
X126793667Y-82716667D01*
X126555571Y-82716667D01*
X126460333Y-82669048D01*
X126412714Y-82621429D01*
X126365095Y-82526190D01*
X126365095Y-82288095D01*
X126412714Y-82192857D01*
X126460333Y-82145238D01*
X126555571Y-82097619D01*
X126793667Y-82097619D01*
X126888905Y-82145238D01*
X126936524Y-82192857D01*
X130476524Y-82970619D02*
X129857476Y-82970619D01*
X130190810Y-82589667D01*
X130047952Y-82589667D01*
X129952714Y-82542048D01*
X129905095Y-82494429D01*
X129857476Y-82399190D01*
X129857476Y-82161095D01*
X129905095Y-82065857D01*
X129952714Y-82018238D01*
X130047952Y-81970619D01*
X130333667Y-81970619D01*
X130428905Y-82018238D01*
X130476524Y-82065857D01*
X129000333Y-82637286D02*
X129000333Y-81970619D01*
X129238429Y-83018238D02*
X129476524Y-82303952D01*
X128857476Y-82303952D01*
X140509524Y-82970619D02*
X139890476Y-82970619D01*
X140223810Y-82589667D01*
X140080952Y-82589667D01*
X139985714Y-82542048D01*
X139938095Y-82494429D01*
X139890476Y-82399190D01*
X139890476Y-82161095D01*
X139938095Y-82065857D01*
X139985714Y-82018238D01*
X140080952Y-81970619D01*
X140366667Y-81970619D01*
X140461905Y-82018238D01*
X140509524Y-82065857D01*
X139557143Y-82970619D02*
X138938095Y-82970619D01*
X139271429Y-82589667D01*
X139128571Y-82589667D01*
X139033333Y-82542048D01*
X138985714Y-82494429D01*
X138938095Y-82399190D01*
X138938095Y-82161095D01*
X138985714Y-82065857D01*
X139033333Y-82018238D01*
X139128571Y-81970619D01*
X139414286Y-81970619D01*
X139509524Y-82018238D01*
X139557143Y-82065857D01*
X143049524Y-83097619D02*
X142430476Y-83097619D01*
X142763810Y-82716667D01*
X142620952Y-82716667D01*
X142525714Y-82669048D01*
X142478095Y-82621429D01*
X142430476Y-82526190D01*
X142430476Y-82288095D01*
X142478095Y-82192857D01*
X142525714Y-82145238D01*
X142620952Y-82097619D01*
X142906667Y-82097619D01*
X143001905Y-82145238D01*
X143049524Y-82192857D01*
X141478095Y-82097619D02*
X142049524Y-82097619D01*
X141763810Y-82097619D02*
X141763810Y-83097619D01*
X141859048Y-82954762D01*
X141954286Y-82859524D01*
X142049524Y-82811905D01*
X114014286Y-93781619D02*
X114061905Y-93734000D01*
X114157143Y-93686381D01*
X114395239Y-93686381D01*
X114490477Y-93734000D01*
X114538096Y-93781619D01*
X114585715Y-93876857D01*
X114585715Y-93972095D01*
X114538096Y-94114952D01*
X113966667Y-94686381D01*
X114585715Y-94686381D01*
X116506667Y-93686381D02*
X117125715Y-93686381D01*
X116792381Y-94067333D01*
X116935239Y-94067333D01*
X117030477Y-94114952D01*
X117078096Y-94162571D01*
X117125715Y-94257810D01*
X117125715Y-94495905D01*
X117078096Y-94591143D01*
X117030477Y-94638762D01*
X116935239Y-94686381D01*
X116649524Y-94686381D01*
X116554286Y-94638762D01*
X116506667Y-94591143D01*
X119618096Y-93686381D02*
X119141905Y-93686381D01*
X119094286Y-94162571D01*
X119141905Y-94114952D01*
X119237143Y-94067333D01*
X119475239Y-94067333D01*
X119570477Y-94114952D01*
X119618096Y-94162571D01*
X119665715Y-94257810D01*
X119665715Y-94495905D01*
X119618096Y-94591143D01*
X119570477Y-94638762D01*
X119475239Y-94686381D01*
X119237143Y-94686381D01*
X119141905Y-94638762D01*
X119094286Y-94591143D01*
X122110477Y-93686381D02*
X121920000Y-93686381D01*
X121824762Y-93734000D01*
X121777143Y-93781619D01*
X121681905Y-93924476D01*
X121634286Y-94114952D01*
X121634286Y-94495905D01*
X121681905Y-94591143D01*
X121729524Y-94638762D01*
X121824762Y-94686381D01*
X122015239Y-94686381D01*
X122110477Y-94638762D01*
X122158096Y-94591143D01*
X122205715Y-94495905D01*
X122205715Y-94257810D01*
X122158096Y-94162571D01*
X122110477Y-94114952D01*
X122015239Y-94067333D01*
X121824762Y-94067333D01*
X121729524Y-94114952D01*
X121681905Y-94162571D01*
X121634286Y-94257810D01*
X124364762Y-94114952D02*
X124269524Y-94067333D01*
X124221905Y-94019714D01*
X124174286Y-93924476D01*
X124174286Y-93876857D01*
X124221905Y-93781619D01*
X124269524Y-93734000D01*
X124364762Y-93686381D01*
X124555239Y-93686381D01*
X124650477Y-93734000D01*
X124698096Y-93781619D01*
X124745715Y-93876857D01*
X124745715Y-93924476D01*
X124698096Y-94019714D01*
X124650477Y-94067333D01*
X124555239Y-94114952D01*
X124364762Y-94114952D01*
X124269524Y-94162571D01*
X124221905Y-94210190D01*
X124174286Y-94305429D01*
X124174286Y-94495905D01*
X124221905Y-94591143D01*
X124269524Y-94638762D01*
X124364762Y-94686381D01*
X124555239Y-94686381D01*
X124650477Y-94638762D01*
X124698096Y-94591143D01*
X124745715Y-94495905D01*
X124745715Y-94305429D01*
X124698096Y-94210190D01*
X124650477Y-94162571D01*
X124555239Y-94114952D01*
X126809524Y-94686381D02*
X126238095Y-94686381D01*
X126523809Y-94686381D02*
X126523809Y-93686381D01*
X126428571Y-93829238D01*
X126333333Y-93924476D01*
X126238095Y-93972095D01*
X127428571Y-93686381D02*
X127523810Y-93686381D01*
X127619048Y-93734000D01*
X127666667Y-93781619D01*
X127714286Y-93876857D01*
X127761905Y-94067333D01*
X127761905Y-94305429D01*
X127714286Y-94495905D01*
X127666667Y-94591143D01*
X127619048Y-94638762D01*
X127523810Y-94686381D01*
X127428571Y-94686381D01*
X127333333Y-94638762D01*
X127285714Y-94591143D01*
X127238095Y-94495905D01*
X127190476Y-94305429D01*
X127190476Y-94067333D01*
X127238095Y-93876857D01*
X127285714Y-93781619D01*
X127333333Y-93734000D01*
X127428571Y-93686381D01*
X129349524Y-94686381D02*
X128778095Y-94686381D01*
X129063809Y-94686381D02*
X129063809Y-93686381D01*
X128968571Y-93829238D01*
X128873333Y-93924476D01*
X128778095Y-93972095D01*
X130301905Y-94686381D02*
X129730476Y-94686381D01*
X130016190Y-94686381D02*
X130016190Y-93686381D01*
X129920952Y-93829238D01*
X129825714Y-93924476D01*
X129730476Y-93972095D01*
X145589524Y-83097619D02*
X144970476Y-83097619D01*
X145303810Y-82716667D01*
X145160952Y-82716667D01*
X145065714Y-82669048D01*
X145018095Y-82621429D01*
X144970476Y-82526190D01*
X144970476Y-82288095D01*
X145018095Y-82192857D01*
X145065714Y-82145238D01*
X145160952Y-82097619D01*
X145446667Y-82097619D01*
X145541905Y-82145238D01*
X145589524Y-82192857D01*
X144351429Y-83097619D02*
X144256190Y-83097619D01*
X144160952Y-83050000D01*
X144113333Y-83002381D01*
X144065714Y-82907143D01*
X144018095Y-82716667D01*
X144018095Y-82478571D01*
X144065714Y-82288095D01*
X144113333Y-82192857D01*
X144160952Y-82145238D01*
X144256190Y-82097619D01*
X144351429Y-82097619D01*
X144446667Y-82145238D01*
X144494286Y-82192857D01*
X144541905Y-82288095D01*
X144589524Y-82478571D01*
X144589524Y-82716667D01*
X144541905Y-82907143D01*
X144494286Y-83002381D01*
X144446667Y-83050000D01*
X144351429Y-83097619D01*
X148081905Y-83002381D02*
X148034286Y-83050000D01*
X147939048Y-83097619D01*
X147700952Y-83097619D01*
X147605714Y-83050000D01*
X147558095Y-83002381D01*
X147510476Y-82907143D01*
X147510476Y-82811905D01*
X147558095Y-82669048D01*
X148129524Y-82097619D01*
X147510476Y-82097619D01*
X146939048Y-82669048D02*
X147034286Y-82716667D01*
X147081905Y-82764286D01*
X147129524Y-82859524D01*
X147129524Y-82907143D01*
X147081905Y-83002381D01*
X147034286Y-83050000D01*
X146939048Y-83097619D01*
X146748571Y-83097619D01*
X146653333Y-83050000D01*
X146605714Y-83002381D01*
X146558095Y-82907143D01*
X146558095Y-82859524D01*
X146605714Y-82764286D01*
X146653333Y-82716667D01*
X146748571Y-82669048D01*
X146939048Y-82669048D01*
X147034286Y-82621429D01*
X147081905Y-82573810D01*
X147129524Y-82478571D01*
X147129524Y-82288095D01*
X147081905Y-82192857D01*
X147034286Y-82145238D01*
X146939048Y-82097619D01*
X146748571Y-82097619D01*
X146653333Y-82145238D01*
X146605714Y-82192857D01*
X146558095Y-82288095D01*
X146558095Y-82478571D01*
X146605714Y-82573810D01*
X146653333Y-82621429D01*
X146748571Y-82669048D01*
X150621905Y-83002381D02*
X150574286Y-83050000D01*
X150479048Y-83097619D01*
X150240952Y-83097619D01*
X150145714Y-83050000D01*
X150098095Y-83002381D01*
X150050476Y-82907143D01*
X150050476Y-82811905D01*
X150098095Y-82669048D01*
X150669524Y-82097619D01*
X150050476Y-82097619D01*
X149717143Y-83097619D02*
X149050476Y-83097619D01*
X149479048Y-82097619D01*
X153161905Y-83002381D02*
X153114286Y-83050000D01*
X153019048Y-83097619D01*
X152780952Y-83097619D01*
X152685714Y-83050000D01*
X152638095Y-83002381D01*
X152590476Y-82907143D01*
X152590476Y-82811905D01*
X152638095Y-82669048D01*
X153209524Y-82097619D01*
X152590476Y-82097619D01*
X151685714Y-83097619D02*
X152161905Y-83097619D01*
X152209524Y-82621429D01*
X152161905Y-82669048D01*
X152066667Y-82716667D01*
X151828571Y-82716667D01*
X151733333Y-82669048D01*
X151685714Y-82621429D01*
X151638095Y-82526190D01*
X151638095Y-82288095D01*
X151685714Y-82192857D01*
X151733333Y-82145238D01*
X151828571Y-82097619D01*
X152066667Y-82097619D01*
X152161905Y-82145238D01*
X152209524Y-82192857D01*
X155701905Y-83002381D02*
X155654286Y-83050000D01*
X155559048Y-83097619D01*
X155320952Y-83097619D01*
X155225714Y-83050000D01*
X155178095Y-83002381D01*
X155130476Y-82907143D01*
X155130476Y-82811905D01*
X155178095Y-82669048D01*
X155749524Y-82097619D01*
X155130476Y-82097619D01*
X154797143Y-83097619D02*
X154178095Y-83097619D01*
X154511429Y-82716667D01*
X154368571Y-82716667D01*
X154273333Y-82669048D01*
X154225714Y-82621429D01*
X154178095Y-82526190D01*
X154178095Y-82288095D01*
X154225714Y-82192857D01*
X154273333Y-82145238D01*
X154368571Y-82097619D01*
X154654286Y-82097619D01*
X154749524Y-82145238D01*
X154797143Y-82192857D01*
X158241905Y-83002381D02*
X158194286Y-83050000D01*
X158099048Y-83097619D01*
X157860952Y-83097619D01*
X157765714Y-83050000D01*
X157718095Y-83002381D01*
X157670476Y-82907143D01*
X157670476Y-82811905D01*
X157718095Y-82669048D01*
X158289524Y-82097619D01*
X157670476Y-82097619D01*
X157289524Y-83002381D02*
X157241905Y-83050000D01*
X157146667Y-83097619D01*
X156908571Y-83097619D01*
X156813333Y-83050000D01*
X156765714Y-83002381D01*
X156718095Y-82907143D01*
X156718095Y-82811905D01*
X156765714Y-82669048D01*
X157337143Y-82097619D01*
X156718095Y-82097619D01*
X139509524Y-94686381D02*
X138938095Y-94686381D01*
X139223809Y-94686381D02*
X139223809Y-93686381D01*
X139128571Y-93829238D01*
X139033333Y-93924476D01*
X138938095Y-93972095D01*
X139890476Y-93781619D02*
X139938095Y-93734000D01*
X140033333Y-93686381D01*
X140271429Y-93686381D01*
X140366667Y-93734000D01*
X140414286Y-93781619D01*
X140461905Y-93876857D01*
X140461905Y-93972095D01*
X140414286Y-94114952D01*
X139842857Y-94686381D01*
X140461905Y-94686381D01*
X142049524Y-94686381D02*
X141478095Y-94686381D01*
X141763809Y-94686381D02*
X141763809Y-93686381D01*
X141668571Y-93829238D01*
X141573333Y-93924476D01*
X141478095Y-93972095D01*
X142382857Y-93686381D02*
X143001905Y-93686381D01*
X142668571Y-94067333D01*
X142811429Y-94067333D01*
X142906667Y-94114952D01*
X142954286Y-94162571D01*
X143001905Y-94257810D01*
X143001905Y-94495905D01*
X142954286Y-94591143D01*
X142906667Y-94638762D01*
X142811429Y-94686381D01*
X142525714Y-94686381D01*
X142430476Y-94638762D01*
X142382857Y-94591143D01*
X144462524Y-94686381D02*
X143891095Y-94686381D01*
X144176809Y-94686381D02*
X144176809Y-93686381D01*
X144081571Y-93829238D01*
X143986333Y-93924476D01*
X143891095Y-93972095D01*
X145319667Y-94019714D02*
X145319667Y-94686381D01*
X145081571Y-93638762D02*
X144843476Y-94353048D01*
X145462524Y-94353048D01*
X147002524Y-94686381D02*
X146431095Y-94686381D01*
X146716809Y-94686381D02*
X146716809Y-93686381D01*
X146621571Y-93829238D01*
X146526333Y-93924476D01*
X146431095Y-93972095D01*
X147907286Y-93686381D02*
X147431095Y-93686381D01*
X147383476Y-94162571D01*
X147431095Y-94114952D01*
X147526333Y-94067333D01*
X147764429Y-94067333D01*
X147859667Y-94114952D01*
X147907286Y-94162571D01*
X147954905Y-94257810D01*
X147954905Y-94495905D01*
X147907286Y-94591143D01*
X147859667Y-94638762D01*
X147764429Y-94686381D01*
X147526333Y-94686381D01*
X147431095Y-94638762D01*
X147383476Y-94591143D01*
X149542524Y-94686381D02*
X148971095Y-94686381D01*
X149256809Y-94686381D02*
X149256809Y-93686381D01*
X149161571Y-93829238D01*
X149066333Y-93924476D01*
X148971095Y-93972095D01*
X150113952Y-94114952D02*
X150018714Y-94067333D01*
X149971095Y-94019714D01*
X149923476Y-93924476D01*
X149923476Y-93876857D01*
X149971095Y-93781619D01*
X150018714Y-93734000D01*
X150113952Y-93686381D01*
X150304429Y-93686381D01*
X150399667Y-93734000D01*
X150447286Y-93781619D01*
X150494905Y-93876857D01*
X150494905Y-93924476D01*
X150447286Y-94019714D01*
X150399667Y-94067333D01*
X150304429Y-94114952D01*
X150113952Y-94114952D01*
X150018714Y-94162571D01*
X149971095Y-94210190D01*
X149923476Y-94305429D01*
X149923476Y-94495905D01*
X149971095Y-94591143D01*
X150018714Y-94638762D01*
X150113952Y-94686381D01*
X150304429Y-94686381D01*
X150399667Y-94638762D01*
X150447286Y-94591143D01*
X150494905Y-94495905D01*
X150494905Y-94305429D01*
X150447286Y-94210190D01*
X150399667Y-94162571D01*
X150304429Y-94114952D01*
X152209524Y-94686381D02*
X151638095Y-94686381D01*
X151923809Y-94686381D02*
X151923809Y-93686381D01*
X151828571Y-93829238D01*
X151733333Y-93924476D01*
X151638095Y-93972095D01*
X152685714Y-94686381D02*
X152876190Y-94686381D01*
X152971429Y-94638762D01*
X153019048Y-94591143D01*
X153114286Y-94448286D01*
X153161905Y-94257810D01*
X153161905Y-93876857D01*
X153114286Y-93781619D01*
X153066667Y-93734000D01*
X152971429Y-93686381D01*
X152780952Y-93686381D01*
X152685714Y-93734000D01*
X152638095Y-93781619D01*
X152590476Y-93876857D01*
X152590476Y-94114952D01*
X152638095Y-94210190D01*
X152685714Y-94257810D01*
X152780952Y-94305429D01*
X152971429Y-94305429D01*
X153066667Y-94257810D01*
X153114286Y-94210190D01*
X153161905Y-94114952D01*
X154051095Y-93781619D02*
X154098714Y-93734000D01*
X154193952Y-93686381D01*
X154432048Y-93686381D01*
X154527286Y-93734000D01*
X154574905Y-93781619D01*
X154622524Y-93876857D01*
X154622524Y-93972095D01*
X154574905Y-94114952D01*
X154003476Y-94686381D01*
X154622524Y-94686381D01*
X155241571Y-93686381D02*
X155336810Y-93686381D01*
X155432048Y-93734000D01*
X155479667Y-93781619D01*
X155527286Y-93876857D01*
X155574905Y-94067333D01*
X155574905Y-94305429D01*
X155527286Y-94495905D01*
X155479667Y-94591143D01*
X155432048Y-94638762D01*
X155336810Y-94686381D01*
X155241571Y-94686381D01*
X155146333Y-94638762D01*
X155098714Y-94591143D01*
X155051095Y-94495905D01*
X155003476Y-94305429D01*
X155003476Y-94067333D01*
X155051095Y-93876857D01*
X155098714Y-93781619D01*
X155146333Y-93734000D01*
X155241571Y-93686381D01*
X156591095Y-93781619D02*
X156638714Y-93734000D01*
X156733952Y-93686381D01*
X156972048Y-93686381D01*
X157067286Y-93734000D01*
X157114905Y-93781619D01*
X157162524Y-93876857D01*
X157162524Y-93972095D01*
X157114905Y-94114952D01*
X156543476Y-94686381D01*
X157162524Y-94686381D01*
X158114905Y-94686381D02*
X157543476Y-94686381D01*
X157829190Y-94686381D02*
X157829190Y-93686381D01*
X157733952Y-93829238D01*
X157638714Y-93924476D01*
X157543476Y-93972095D01*
X160162857Y-83097619D02*
X160639048Y-83097619D01*
X160686667Y-82621429D01*
X160639048Y-82669048D01*
X160543810Y-82716667D01*
X160305714Y-82716667D01*
X160210476Y-82669048D01*
X160162857Y-82621429D01*
X160115238Y-82526190D01*
X160115238Y-82288095D01*
X160162857Y-82192857D01*
X160210476Y-82145238D01*
X160305714Y-82097619D01*
X160543810Y-82097619D01*
X160639048Y-82145238D01*
X160686667Y-82192857D01*
X159781905Y-82764286D02*
X159543810Y-82097619D01*
X159305714Y-82764286D01*
X159258096Y-93734000D02*
X159162858Y-93686381D01*
X159020001Y-93686381D01*
X158877143Y-93734000D01*
X158781905Y-93829238D01*
X158734286Y-93924476D01*
X158686667Y-94114952D01*
X158686667Y-94257810D01*
X158734286Y-94448286D01*
X158781905Y-94543524D01*
X158877143Y-94638762D01*
X159020001Y-94686381D01*
X159115239Y-94686381D01*
X159258096Y-94638762D01*
X159305715Y-94591143D01*
X159305715Y-94257810D01*
X159115239Y-94257810D01*
X159734286Y-94686381D02*
X159734286Y-93686381D01*
X160305715Y-94686381D01*
X160305715Y-93686381D01*
X160781905Y-94686381D02*
X160781905Y-93686381D01*
X161020000Y-93686381D01*
X161162858Y-93734000D01*
X161258096Y-93829238D01*
X161305715Y-93924476D01*
X161353334Y-94114952D01*
X161353334Y-94257810D01*
X161305715Y-94448286D01*
X161258096Y-94543524D01*
X161162858Y-94638762D01*
X161020000Y-94686381D01*
X160781905Y-94686381D01*
X111490143Y-93178381D02*
X111013952Y-93178381D01*
X110966333Y-93654571D01*
X111013952Y-93606952D01*
X111109190Y-93559333D01*
X111347286Y-93559333D01*
X111442524Y-93606952D01*
X111490143Y-93654571D01*
X111537762Y-93749810D01*
X111537762Y-93987905D01*
X111490143Y-94083143D01*
X111442524Y-94130762D01*
X111347286Y-94178381D01*
X111109190Y-94178381D01*
X111013952Y-94130762D01*
X110966333Y-94083143D01*
X111871095Y-93511714D02*
X112109190Y-94178381D01*
X112347286Y-93511714D01*
X148082000Y-84074000D02*
X160782000Y-84074000D01*
X160782000Y-84074000D02*
X160782000Y-89154000D01*
X160782000Y-89154000D02*
X150622000Y-89154000D01*
X148082000Y-84074000D02*
X148082000Y-86614000D01*
X147802000Y-87884000D02*
X147802000Y-89434000D01*
X148082000Y-86614000D02*
X150622000Y-86614000D01*
X150622000Y-86614000D02*
X150622000Y-89154000D01*
X147802000Y-89434000D02*
X149352000Y-89434000D01*
X127301445Y-88392000D02*
X127778742Y-88869297D01*
X134620000Y-81073445D02*
X135097297Y-81550742D01*
X141938555Y-88392000D02*
X141461258Y-87914703D01*
X134620000Y-95710555D02*
X134142703Y-95233258D01*
X127301445Y-88392000D02*
X127778742Y-87914703D01*
X134620000Y-95710555D02*
X135097297Y-95233258D01*
X141938555Y-88392000D02*
X141461258Y-88869297D01*
X134620000Y-81073445D02*
X134142703Y-81550742D01*
X127778742Y-88869297D02*
X126877181Y-89770858D01*
X143702594Y-84588513D02*
X142995487Y-83881406D01*
X141793406Y-85083487D02*
X142500513Y-85790594D01*
X142500513Y-90993406D02*
X141793406Y-91700513D01*
X142995487Y-92902594D02*
X143702594Y-92195487D01*
X119214000Y-86352000D02*
X119214000Y-85352000D01*
X117514000Y-85352000D02*
X117514000Y-86352000D01*
X125537406Y-92195487D02*
X126244513Y-92902594D01*
X127446594Y-91700513D02*
X126739487Y-90993406D01*
X126739487Y-85790594D02*
X127446594Y-85083487D01*
X126244513Y-83881406D02*
X125537406Y-84588513D01*
X111393000Y-86960000D02*
X111393000Y-85760000D01*
X113143000Y-85760000D02*
X113143000Y-86960000D01*
X148477000Y-92040000D02*
X148477000Y-90840000D01*
X150227000Y-90840000D02*
X150227000Y-92040000D01*
X151017000Y-92040000D02*
X151017000Y-90840000D01*
X152767000Y-90840000D02*
X152767000Y-92040000D01*
X153557000Y-92040000D02*
X153557000Y-90840000D01*
X155307000Y-90840000D02*
X155307000Y-92040000D01*
X158637000Y-92040000D02*
X158637000Y-90840000D01*
X160387000Y-90840000D02*
X160387000Y-92040000D01*
X111518000Y-88824000D02*
X111518000Y-91524000D01*
X113018000Y-88824000D02*
X113018000Y-91524000D01*
X112118000Y-90324000D02*
X112368000Y-90324000D01*
X112368000Y-90324000D02*
X112218000Y-90174000D01*
X112618000Y-90074000D02*
X111918000Y-90074000D01*
X112268000Y-90424000D02*
X112268000Y-90774000D01*
X112268000Y-90074000D02*
X112618000Y-90424000D01*
X112618000Y-90424000D02*
X111918000Y-90424000D01*
X111918000Y-90424000D02*
X112268000Y-90074000D01*
X112776000Y-97536000D02*
X110490000Y-97536000D01*
X110490000Y-97536000D02*
X110490000Y-94488000D01*
X110490000Y-94488000D02*
X112776000Y-94488000D01*
X147264381Y-87606095D02*
X146264381Y-87606095D01*
X146264381Y-87225142D01*
X146312000Y-87129904D01*
X146359619Y-87082285D01*
X146454857Y-87034666D01*
X146597714Y-87034666D01*
X146692952Y-87082285D01*
X146740571Y-87129904D01*
X146788190Y-87225142D01*
X146788190Y-87606095D01*
X147264381Y-86082285D02*
X147264381Y-86653714D01*
X147264381Y-86368000D02*
X146264381Y-86368000D01*
X146407238Y-86463238D01*
X146502476Y-86558476D01*
X146550095Y-86653714D01*
X133694027Y-88416522D02*
X134266447Y-88988942D01*
X134367462Y-89022614D01*
X134434805Y-89022614D01*
X134535820Y-88988942D01*
X134670508Y-88854254D01*
X134704180Y-88753239D01*
X134704180Y-88685896D01*
X134670508Y-88584881D01*
X134098088Y-88012461D01*
X135512302Y-88012461D02*
X135108240Y-88416522D01*
X135310271Y-88214492D02*
X134603164Y-87507385D01*
X134636836Y-87675744D01*
X134636836Y-87810430D01*
X134603164Y-87911446D01*
X144787688Y-86984388D02*
X144787688Y-87051731D01*
X144720344Y-87186418D01*
X144653001Y-87253762D01*
X144518313Y-87321106D01*
X144383626Y-87321106D01*
X144282611Y-87287434D01*
X144114253Y-87186419D01*
X144013237Y-87085403D01*
X143912222Y-86917044D01*
X143878550Y-86816029D01*
X143878550Y-86681342D01*
X143945894Y-86546655D01*
X144013237Y-86479311D01*
X144147924Y-86411968D01*
X144215268Y-86411968D01*
X144484641Y-86142594D02*
X144484641Y-86075251D01*
X144518313Y-85974236D01*
X144686672Y-85805876D01*
X144787688Y-85772205D01*
X144855031Y-85772205D01*
X144956046Y-85805876D01*
X145023390Y-85873220D01*
X145090733Y-86007907D01*
X145090733Y-86816029D01*
X145528466Y-86378296D01*
X144028611Y-90304688D02*
X143961268Y-90304688D01*
X143826581Y-90237344D01*
X143759237Y-90170001D01*
X143691893Y-90035313D01*
X143691893Y-89900626D01*
X143725565Y-89799611D01*
X143826580Y-89631253D01*
X143927596Y-89530237D01*
X144095955Y-89429222D01*
X144196970Y-89395550D01*
X144331657Y-89395550D01*
X144466344Y-89462894D01*
X144533688Y-89530237D01*
X144601031Y-89664924D01*
X144601031Y-89732268D01*
X144904076Y-89900626D02*
X145341810Y-90338359D01*
X144836733Y-90372030D01*
X144937749Y-90473046D01*
X144971421Y-90574061D01*
X144971421Y-90641405D01*
X144937748Y-90742421D01*
X144769390Y-90910779D01*
X144668374Y-90944451D01*
X144601031Y-90944451D01*
X144500016Y-90910779D01*
X144297985Y-90708748D01*
X144264313Y-90607733D01*
X144264313Y-90540390D01*
X117070143Y-86145666D02*
X117117762Y-86193285D01*
X117165381Y-86336142D01*
X117165381Y-86431380D01*
X117117762Y-86574238D01*
X117022524Y-86669476D01*
X116927286Y-86717095D01*
X116736810Y-86764714D01*
X116593952Y-86764714D01*
X116403476Y-86717095D01*
X116308238Y-86669476D01*
X116213000Y-86574238D01*
X116165381Y-86431380D01*
X116165381Y-86336142D01*
X116213000Y-86193285D01*
X116260619Y-86145666D01*
X116498714Y-85288523D02*
X117165381Y-85288523D01*
X116117762Y-85526619D02*
X116832048Y-85764714D01*
X116832048Y-85145666D01*
X124848688Y-90540389D02*
X124848688Y-90607732D01*
X124781344Y-90742419D01*
X124714001Y-90809763D01*
X124579313Y-90877107D01*
X124444626Y-90877107D01*
X124343611Y-90843435D01*
X124175253Y-90742420D01*
X124074237Y-90641404D01*
X123973222Y-90473045D01*
X123939550Y-90372030D01*
X123939550Y-90237343D01*
X124006894Y-90102656D01*
X124074237Y-90035312D01*
X124208924Y-89967969D01*
X124276268Y-89967969D01*
X124848688Y-89260862D02*
X124511970Y-89597580D01*
X124815015Y-89967969D01*
X124815015Y-89900626D01*
X124848687Y-89799610D01*
X125017046Y-89631251D01*
X125118061Y-89597579D01*
X125185405Y-89597579D01*
X125286421Y-89631252D01*
X125454779Y-89799610D01*
X125488451Y-89900626D01*
X125488451Y-89967969D01*
X125454779Y-90068984D01*
X125286420Y-90237343D01*
X125185405Y-90271015D01*
X125118061Y-90271015D01*
X124851611Y-87129688D02*
X124784268Y-87129688D01*
X124649581Y-87062344D01*
X124582237Y-86995001D01*
X124514893Y-86860313D01*
X124514893Y-86725626D01*
X124548565Y-86624611D01*
X124649580Y-86456253D01*
X124750596Y-86355237D01*
X124918955Y-86254222D01*
X125019970Y-86220550D01*
X125154657Y-86220550D01*
X125289344Y-86287894D01*
X125356688Y-86355237D01*
X125424031Y-86489924D01*
X125424031Y-86557268D01*
X126097466Y-87096016D02*
X125962778Y-86961328D01*
X125861763Y-86927657D01*
X125794420Y-86927657D01*
X125626061Y-86961328D01*
X125457703Y-87062343D01*
X125188328Y-87331718D01*
X125154657Y-87432733D01*
X125154657Y-87500076D01*
X125188328Y-87601092D01*
X125323016Y-87735779D01*
X125424031Y-87769451D01*
X125491374Y-87769451D01*
X125592390Y-87735779D01*
X125760748Y-87567421D01*
X125794421Y-87466405D01*
X125794421Y-87399061D01*
X125760749Y-87298046D01*
X125626061Y-87163359D01*
X125525046Y-87129687D01*
X125457703Y-87129687D01*
X125356687Y-87163359D01*
X114752381Y-86526666D02*
X114276190Y-86860000D01*
X114752381Y-87098095D02*
X113752381Y-87098095D01*
X113752381Y-86717142D01*
X113800000Y-86621904D01*
X113847619Y-86574285D01*
X113942857Y-86526666D01*
X114085714Y-86526666D01*
X114180952Y-86574285D01*
X114228571Y-86621904D01*
X114276190Y-86717142D01*
X114276190Y-87098095D01*
X114752381Y-85574285D02*
X114752381Y-86145714D01*
X114752381Y-85860000D02*
X113752381Y-85860000D01*
X113895238Y-85955238D01*
X113990476Y-86050476D01*
X114038095Y-86145714D01*
X114752381Y-91543047D02*
X114752381Y-92019238D01*
X113752381Y-92019238D01*
X114228571Y-91209714D02*
X114228571Y-90876380D01*
X114752381Y-90733523D02*
X114752381Y-91209714D01*
X113752381Y-91209714D01*
X113752381Y-90733523D01*
X114752381Y-90304952D02*
X113752381Y-90304952D01*
X113752381Y-90066857D01*
X113800000Y-89923999D01*
X113895238Y-89828761D01*
X113990476Y-89781142D01*
X114180952Y-89733523D01*
X114323810Y-89733523D01*
X114514286Y-89781142D01*
X114609524Y-89828761D01*
X114704762Y-89923999D01*
X114752381Y-90066857D01*
X114752381Y-90304952D01*
X114752381Y-88781142D02*
X114752381Y-89352571D01*
X114752381Y-89066857D02*
X113752381Y-89066857D01*
X113895238Y-89162095D01*
X113990476Y-89257333D01*
X114038095Y-89352571D01*
X120007286Y-88352381D02*
X120578715Y-88352381D01*
X120293000Y-89352381D02*
X120293000Y-88352381D01*
X121483477Y-89257143D02*
X121435858Y-89304762D01*
X121293001Y-89352381D01*
X121197763Y-89352381D01*
X121054905Y-89304762D01*
X120959667Y-89209524D01*
X120912048Y-89114286D01*
X120864429Y-88923810D01*
X120864429Y-88780952D01*
X120912048Y-88590476D01*
X120959667Y-88495238D01*
X121054905Y-88400000D01*
X121197763Y-88352381D01*
X121293001Y-88352381D01*
X121435858Y-88400000D01*
X121483477Y-88447619D01*
X122102524Y-88352381D02*
X122293001Y-88352381D01*
X122388239Y-88400000D01*
X122483477Y-88495238D01*
X122531096Y-88685714D01*
X122531096Y-89019048D01*
X122483477Y-89209524D01*
X122388239Y-89304762D01*
X122293001Y-89352381D01*
X122102524Y-89352381D01*
X122007286Y-89304762D01*
X121912048Y-89209524D01*
X121864429Y-89019048D01*
X121864429Y-88685714D01*
X121912048Y-88495238D01*
X122007286Y-88400000D01*
X122102524Y-88352381D01*
X123483477Y-89352381D02*
X122912048Y-89352381D01*
X123197762Y-89352381D02*
X123197762Y-88352381D01*
X123102524Y-88495238D01*
X123007286Y-88590476D01*
X122912048Y-88638095D01*
M02*
