G04 #@! TF.FileFunction,Soldermask,Bot*
%FSLAX46Y46*%
G04 Gerber Fmt 4.6, Leading zero omitted, Abs format (unit mm)*
G04 Created by KiCad (PCBNEW (2015-08-16 BZR 6097, Git b384c94)-product) date 12/8/2015 8:31:07 PM*
%MOMM*%
G01*
G04 APERTURE LIST*
%ADD10C,0.100000*%
%ADD11R,2.127200X2.127200*%
%ADD12O,2.127200X2.127200*%
%ADD13O,2.127200X2.432000*%
%ADD14R,2.127200X2.432000*%
G04 APERTURE END LIST*
D10*
D11*
X149352000Y-87884000D03*
D12*
X149352000Y-85344000D03*
X151892000Y-87884000D03*
X151892000Y-85344000D03*
X154432000Y-87884000D03*
X154432000Y-85344000D03*
X156972000Y-87884000D03*
X156972000Y-85344000D03*
X159512000Y-87884000D03*
X159512000Y-85344000D03*
D13*
X139700000Y-80772000D03*
X111760000Y-80772000D03*
X114300000Y-80772000D03*
X116840000Y-80772000D03*
X119380000Y-80772000D03*
X121920000Y-80772000D03*
X124460000Y-80772000D03*
X127000000Y-80772000D03*
X129540000Y-80772000D03*
X144780000Y-80772000D03*
X147320000Y-80772000D03*
X149860000Y-80772000D03*
X152400000Y-80772000D03*
X154940000Y-80772000D03*
X157480000Y-80772000D03*
X160020000Y-80772000D03*
X142240000Y-80772000D03*
X139700000Y-96012000D03*
D14*
X111760000Y-96012000D03*
D13*
X114300000Y-96012000D03*
X116840000Y-96012000D03*
X119380000Y-96012000D03*
X121920000Y-96012000D03*
X124460000Y-96012000D03*
X127000000Y-96012000D03*
X129540000Y-96012000D03*
X144780000Y-96012000D03*
X147320000Y-96012000D03*
X149860000Y-96012000D03*
X152400000Y-96012000D03*
X154940000Y-96012000D03*
X157480000Y-96012000D03*
X160020000Y-96012000D03*
X142240000Y-96012000D03*
M02*
