M48
INCH,TZ
T1C0.016
T2C0.040
%
G90
G05
T1
X44850Y-33650
X47400Y-32600
X48200Y-34800
X48800Y-35908
X49490Y-34442
X49500Y-36700
X51000Y-34500
X51300Y-35308
X51477Y-34023
X51600Y-35600
X51700Y-33800
X51880Y-33528
X52500Y-36700
X52569Y-32785
X53300Y-32700
X53800Y-36300
X53850Y-33500
X53850Y-35350
X54200Y-36000
X54300Y-34400
X54500Y-35550
X54600Y-34050
X55000Y-35000
X55257Y-34790
X56400Y-32750
X56800Y-33300
X57000Y-36200
X57200Y-33700
X62050Y-36000
X62600Y-36800
T2
X44000Y-31800
X44000Y-37800
X45000Y-31800
X45000Y-37800
X46000Y-31800
X46000Y-37800
X47000Y-31800
X47000Y-37800
X48000Y-31800
X48000Y-37800
X49000Y-31800
X49000Y-37800
X50000Y-31800
X50000Y-37800
X51000Y-31800
X51000Y-37800
X55000Y-31800
X55000Y-37800
X56000Y-31800
X56000Y-37800
X57000Y-31800
X57000Y-37800
X58000Y-31800
X58000Y-37800
X58800Y-33600
X58800Y-34600
X59000Y-31800
X59000Y-37800
X59800Y-33600
X59800Y-34600
X60000Y-31800
X60000Y-37800
X60800Y-33600
X60800Y-34600
X61000Y-31800
X61000Y-37800
X61800Y-33600
X61800Y-34600
X62000Y-31800
X62000Y-37800
X62800Y-33600
X62800Y-34600
X63000Y-31800
X63000Y-37800
T0
M30
