G04 #@! TF.FileFunction,Copper,L4,Bot,Signal*
%FSLAX46Y46*%
G04 Gerber Fmt 4.6, Leading zero omitted, Abs format (unit mm)*
G04 Created by KiCad (PCBNEW (2015-08-16 BZR 6097, Git b384c94)-product) date 11/17/2015 9:28:50 PM*
%MOMM*%
G01*
G04 APERTURE LIST*
%ADD10C,0.100000*%
%ADD11R,1.727200X1.727200*%
%ADD12O,1.727200X1.727200*%
%ADD13O,1.727200X2.032000*%
%ADD14R,1.727200X2.032000*%
%ADD15C,0.600000*%
%ADD16C,0.635000*%
%ADD17C,0.381000*%
G04 APERTURE END LIST*
D10*
D11*
X149352000Y-87884000D03*
D12*
X149352000Y-85344000D03*
X151892000Y-87884000D03*
X151892000Y-85344000D03*
X154432000Y-87884000D03*
X154432000Y-85344000D03*
X156972000Y-87884000D03*
X156972000Y-85344000D03*
X159512000Y-87884000D03*
X159512000Y-85344000D03*
D13*
X139700000Y-80772000D03*
X111760000Y-80772000D03*
X114300000Y-80772000D03*
X116840000Y-80772000D03*
X119380000Y-80772000D03*
X121920000Y-80772000D03*
X124460000Y-80772000D03*
X127000000Y-80772000D03*
X129540000Y-80772000D03*
X144780000Y-80772000D03*
X147320000Y-80772000D03*
X149860000Y-80772000D03*
X152400000Y-80772000D03*
X154940000Y-80772000D03*
X157480000Y-80772000D03*
X160020000Y-80772000D03*
X142240000Y-80772000D03*
X139700000Y-96012000D03*
D14*
X111760000Y-96012000D03*
D13*
X114300000Y-96012000D03*
X116840000Y-96012000D03*
X119380000Y-96012000D03*
X121920000Y-96012000D03*
X124460000Y-96012000D03*
X127000000Y-96012000D03*
X129540000Y-96012000D03*
X144780000Y-96012000D03*
X147320000Y-96012000D03*
X149860000Y-96012000D03*
X152400000Y-96012000D03*
X154940000Y-96012000D03*
X157480000Y-96012000D03*
X160020000Y-96012000D03*
X142240000Y-96012000D03*
D15*
X125730000Y-93218000D03*
X137668000Y-91440000D03*
X133350000Y-93218000D03*
X130752306Y-86417694D03*
X159004000Y-93472000D03*
X120650000Y-82550000D03*
X136779000Y-85090000D03*
X143256000Y-83185000D03*
X136652000Y-92202000D03*
X131064000Y-90424000D03*
X123952000Y-91186000D03*
X133525509Y-83272967D03*
X119126000Y-88138000D03*
X144780000Y-91948000D03*
X144272000Y-84582000D03*
X125730000Y-87630000D03*
X113919000Y-85471000D03*
X138684000Y-86487000D03*
X135382000Y-83058000D03*
X136779000Y-89789000D03*
X140353081Y-88367295D03*
X130302000Y-89683552D03*
X138430000Y-90297000D03*
X139700000Y-88900000D03*
X137922000Y-87376000D03*
X131776423Y-85161480D03*
X131318000Y-85852000D03*
X129540000Y-87630000D03*
D16*
X149352000Y-87884000D02*
X147853400Y-87884000D01*
X146456400Y-86487000D02*
X138684000Y-86487000D01*
X147853400Y-87884000D02*
X146456400Y-86487000D01*
X136134490Y-82305510D02*
X135382000Y-83058000D01*
X150622000Y-84328000D02*
X148599510Y-82305510D01*
X148599510Y-82305510D02*
X136134490Y-82305510D01*
X150622000Y-84757930D02*
X150622000Y-84328000D01*
D17*
X150622000Y-86118030D02*
X150622000Y-84757930D01*
D16*
X151028401Y-86524431D02*
X150622000Y-86118030D01*
X151892000Y-87884000D02*
X151028401Y-87020401D01*
X151028401Y-87020401D02*
X151028401Y-86524431D01*
X136779000Y-89789000D02*
X139035714Y-87532286D01*
X139035714Y-87532286D02*
X146320804Y-87532286D01*
X146320804Y-87532286D02*
X148053619Y-89265101D01*
X148053619Y-89265101D02*
X153050899Y-89265101D01*
X153050899Y-89265101D02*
X153568401Y-88747599D01*
X153568401Y-88747599D02*
X154432000Y-87884000D01*
X142409197Y-88367295D02*
X140777345Y-88367295D01*
X140777345Y-88367295D02*
X140353081Y-88367295D01*
X156210000Y-91186000D02*
X145227902Y-91186000D01*
X159512000Y-87884000D02*
X156210000Y-91186000D01*
X145227902Y-91186000D02*
X142409197Y-88367295D01*
X116840000Y-96012000D02*
X116840000Y-95859600D01*
X116840000Y-95859600D02*
X123016048Y-89683552D01*
X123016048Y-89683552D02*
X130302000Y-89683552D01*
X152346584Y-93853000D02*
X141986000Y-93853000D01*
X141986000Y-93853000D02*
X138430000Y-90297000D01*
X154940000Y-96012000D02*
X154505584Y-96012000D01*
X154505584Y-96012000D02*
X152346584Y-93853000D01*
D17*
X156210000Y-92964000D02*
X157480000Y-94234000D01*
X157480000Y-94234000D02*
X157480000Y-96012000D01*
X143339736Y-92964000D02*
X156210000Y-92964000D01*
X139700000Y-88900000D02*
X139700000Y-89324264D01*
X139700000Y-89324264D02*
X143339736Y-92964000D01*
X115997080Y-85161480D02*
X131352159Y-85161480D01*
X111760000Y-80772000D02*
X111760000Y-80924400D01*
X111760000Y-80924400D02*
X115997080Y-85161480D01*
X131352159Y-85161480D02*
X131776423Y-85161480D01*
X117703600Y-84328000D02*
X114300000Y-80924400D01*
X131318000Y-85852000D02*
X132588000Y-85852000D01*
X132588000Y-85852000D02*
X132768991Y-85671009D01*
X132768991Y-85671009D02*
X132768991Y-84568663D01*
X132768991Y-84568663D02*
X132528328Y-84328000D01*
X132528328Y-84328000D02*
X117703600Y-84328000D01*
X114300000Y-80924400D02*
X114300000Y-80772000D01*
X129540000Y-87630000D02*
X129839999Y-87929999D01*
X129839999Y-87929999D02*
X131526001Y-87929999D01*
X131526001Y-87929999D02*
X133858000Y-85598000D01*
X133858000Y-85598000D02*
X133858000Y-84582000D01*
X133858000Y-84582000D02*
X132842000Y-83566000D01*
X132842000Y-83566000D02*
X122682000Y-83566000D01*
X121920000Y-82804000D02*
X121920000Y-80772000D01*
X122682000Y-83566000D02*
X121920000Y-82804000D01*
M02*
