G04 #@! TF.FileFunction,Soldermask,Top*
%FSLAX46Y46*%
G04 Gerber Fmt 4.6, Leading zero omitted, Abs format (unit mm)*
G04 Created by KiCad (PCBNEW (2015-08-16 BZR 6097, Git b384c94)-product) date 11/17/2015 9:28:50 PM*
%MOMM*%
G01*
G04 APERTURE LIST*
%ADD10C,0.100000*%
%ADD11R,2.127200X2.127200*%
%ADD12O,2.127200X2.127200*%
%ADD13R,1.800000X2.000000*%
%ADD14R,1.650000X1.400000*%
%ADD15R,1.700000X1.100000*%
%ADD16R,1.598880X1.598880*%
%ADD17O,2.127200X2.432000*%
%ADD18R,2.127200X2.432000*%
G04 APERTURE END LIST*
D10*
D11*
X149352000Y-87884000D03*
D12*
X149352000Y-85344000D03*
X151892000Y-87884000D03*
X151892000Y-85344000D03*
X154432000Y-87884000D03*
X154432000Y-85344000D03*
X156972000Y-87884000D03*
X156972000Y-85344000D03*
X159512000Y-87884000D03*
X159512000Y-85344000D03*
D13*
X123424000Y-87102000D03*
X121174000Y-87102000D03*
X123424000Y-84602000D03*
X121174000Y-84602000D03*
D10*
G36*
X127425188Y-90601709D02*
X126753437Y-89929958D01*
X128096940Y-88586455D01*
X128768691Y-89258206D01*
X127425188Y-90601709D01*
X127425188Y-90601709D01*
G37*
G36*
X127990874Y-91167394D02*
X127319123Y-90495643D01*
X128662626Y-89152140D01*
X129334377Y-89823891D01*
X127990874Y-91167394D01*
X127990874Y-91167394D01*
G37*
G36*
X128556559Y-91733079D02*
X127884808Y-91061328D01*
X129228311Y-89717825D01*
X129900062Y-90389576D01*
X128556559Y-91733079D01*
X128556559Y-91733079D01*
G37*
G36*
X129122244Y-92298765D02*
X128450493Y-91627014D01*
X129793996Y-90283511D01*
X130465747Y-90955262D01*
X129122244Y-92298765D01*
X129122244Y-92298765D01*
G37*
G36*
X129687930Y-92864450D02*
X129016179Y-92192699D01*
X130359682Y-90849196D01*
X131031433Y-91520947D01*
X129687930Y-92864450D01*
X129687930Y-92864450D01*
G37*
G36*
X130253615Y-93430136D02*
X129581864Y-92758385D01*
X130925367Y-91414882D01*
X131597118Y-92086633D01*
X130253615Y-93430136D01*
X130253615Y-93430136D01*
G37*
G36*
X130819301Y-93995821D02*
X130147550Y-93324070D01*
X131491053Y-91980567D01*
X132162804Y-92652318D01*
X130819301Y-93995821D01*
X130819301Y-93995821D01*
G37*
G36*
X131384986Y-94561507D02*
X130713235Y-93889756D01*
X132056738Y-92546253D01*
X132728489Y-93218004D01*
X131384986Y-94561507D01*
X131384986Y-94561507D01*
G37*
G36*
X131950672Y-95127192D02*
X131278921Y-94455441D01*
X132622424Y-93111938D01*
X133294175Y-93783689D01*
X131950672Y-95127192D01*
X131950672Y-95127192D01*
G37*
G36*
X132516357Y-95692877D02*
X131844606Y-95021126D01*
X133188109Y-93677623D01*
X133859860Y-94349374D01*
X132516357Y-95692877D01*
X132516357Y-95692877D01*
G37*
G36*
X133082042Y-96258563D02*
X132410291Y-95586812D01*
X133753794Y-94243309D01*
X134425545Y-94915060D01*
X133082042Y-96258563D01*
X133082042Y-96258563D01*
G37*
G36*
X136829709Y-95586812D02*
X136157958Y-96258563D01*
X134814455Y-94915060D01*
X135486206Y-94243309D01*
X136829709Y-95586812D01*
X136829709Y-95586812D01*
G37*
G36*
X137395394Y-95021126D02*
X136723643Y-95692877D01*
X135380140Y-94349374D01*
X136051891Y-93677623D01*
X137395394Y-95021126D01*
X137395394Y-95021126D01*
G37*
G36*
X137961079Y-94455441D02*
X137289328Y-95127192D01*
X135945825Y-93783689D01*
X136617576Y-93111938D01*
X137961079Y-94455441D01*
X137961079Y-94455441D01*
G37*
G36*
X138526765Y-93889756D02*
X137855014Y-94561507D01*
X136511511Y-93218004D01*
X137183262Y-92546253D01*
X138526765Y-93889756D01*
X138526765Y-93889756D01*
G37*
G36*
X139092450Y-93324070D02*
X138420699Y-93995821D01*
X137077196Y-92652318D01*
X137748947Y-91980567D01*
X139092450Y-93324070D01*
X139092450Y-93324070D01*
G37*
G36*
X139658136Y-92758385D02*
X138986385Y-93430136D01*
X137642882Y-92086633D01*
X138314633Y-91414882D01*
X139658136Y-92758385D01*
X139658136Y-92758385D01*
G37*
G36*
X140223821Y-92192699D02*
X139552070Y-92864450D01*
X138208567Y-91520947D01*
X138880318Y-90849196D01*
X140223821Y-92192699D01*
X140223821Y-92192699D01*
G37*
G36*
X140789507Y-91627014D02*
X140117756Y-92298765D01*
X138774253Y-90955262D01*
X139446004Y-90283511D01*
X140789507Y-91627014D01*
X140789507Y-91627014D01*
G37*
G36*
X141355192Y-91061328D02*
X140683441Y-91733079D01*
X139339938Y-90389576D01*
X140011689Y-89717825D01*
X141355192Y-91061328D01*
X141355192Y-91061328D01*
G37*
G36*
X141920877Y-90495643D02*
X141249126Y-91167394D01*
X139905623Y-89823891D01*
X140577374Y-89152140D01*
X141920877Y-90495643D01*
X141920877Y-90495643D01*
G37*
G36*
X142486563Y-89929958D02*
X141814812Y-90601709D01*
X140471309Y-89258206D01*
X141143060Y-88586455D01*
X142486563Y-89929958D01*
X142486563Y-89929958D01*
G37*
G36*
X141143060Y-88197545D02*
X140471309Y-87525794D01*
X141814812Y-86182291D01*
X142486563Y-86854042D01*
X141143060Y-88197545D01*
X141143060Y-88197545D01*
G37*
G36*
X140577374Y-87631860D02*
X139905623Y-86960109D01*
X141249126Y-85616606D01*
X141920877Y-86288357D01*
X140577374Y-87631860D01*
X140577374Y-87631860D01*
G37*
G36*
X140011689Y-87066175D02*
X139339938Y-86394424D01*
X140683441Y-85050921D01*
X141355192Y-85722672D01*
X140011689Y-87066175D01*
X140011689Y-87066175D01*
G37*
G36*
X139446004Y-86500489D02*
X138774253Y-85828738D01*
X140117756Y-84485235D01*
X140789507Y-85156986D01*
X139446004Y-86500489D01*
X139446004Y-86500489D01*
G37*
G36*
X138880318Y-85934804D02*
X138208567Y-85263053D01*
X139552070Y-83919550D01*
X140223821Y-84591301D01*
X138880318Y-85934804D01*
X138880318Y-85934804D01*
G37*
G36*
X138314633Y-85369118D02*
X137642882Y-84697367D01*
X138986385Y-83353864D01*
X139658136Y-84025615D01*
X138314633Y-85369118D01*
X138314633Y-85369118D01*
G37*
G36*
X137748947Y-84803433D02*
X137077196Y-84131682D01*
X138420699Y-82788179D01*
X139092450Y-83459930D01*
X137748947Y-84803433D01*
X137748947Y-84803433D01*
G37*
G36*
X137183262Y-84237747D02*
X136511511Y-83565996D01*
X137855014Y-82222493D01*
X138526765Y-82894244D01*
X137183262Y-84237747D01*
X137183262Y-84237747D01*
G37*
G36*
X136617576Y-83672062D02*
X135945825Y-83000311D01*
X137289328Y-81656808D01*
X137961079Y-82328559D01*
X136617576Y-83672062D01*
X136617576Y-83672062D01*
G37*
G36*
X136051891Y-83106377D02*
X135380140Y-82434626D01*
X136723643Y-81091123D01*
X137395394Y-81762874D01*
X136051891Y-83106377D01*
X136051891Y-83106377D01*
G37*
G36*
X135486206Y-82540691D02*
X134814455Y-81868940D01*
X136157958Y-80525437D01*
X136829709Y-81197188D01*
X135486206Y-82540691D01*
X135486206Y-82540691D01*
G37*
G36*
X134425545Y-81868940D02*
X133753794Y-82540691D01*
X132410291Y-81197188D01*
X133082042Y-80525437D01*
X134425545Y-81868940D01*
X134425545Y-81868940D01*
G37*
G36*
X133859860Y-82434626D02*
X133188109Y-83106377D01*
X131844606Y-81762874D01*
X132516357Y-81091123D01*
X133859860Y-82434626D01*
X133859860Y-82434626D01*
G37*
G36*
X133294175Y-83000311D02*
X132622424Y-83672062D01*
X131278921Y-82328559D01*
X131950672Y-81656808D01*
X133294175Y-83000311D01*
X133294175Y-83000311D01*
G37*
G36*
X132728489Y-83565996D02*
X132056738Y-84237747D01*
X130713235Y-82894244D01*
X131384986Y-82222493D01*
X132728489Y-83565996D01*
X132728489Y-83565996D01*
G37*
G36*
X132162804Y-84131682D02*
X131491053Y-84803433D01*
X130147550Y-83459930D01*
X130819301Y-82788179D01*
X132162804Y-84131682D01*
X132162804Y-84131682D01*
G37*
G36*
X131597118Y-84697367D02*
X130925367Y-85369118D01*
X129581864Y-84025615D01*
X130253615Y-83353864D01*
X131597118Y-84697367D01*
X131597118Y-84697367D01*
G37*
G36*
X131031433Y-85263053D02*
X130359682Y-85934804D01*
X129016179Y-84591301D01*
X129687930Y-83919550D01*
X131031433Y-85263053D01*
X131031433Y-85263053D01*
G37*
G36*
X130465747Y-85828738D02*
X129793996Y-86500489D01*
X128450493Y-85156986D01*
X129122244Y-84485235D01*
X130465747Y-85828738D01*
X130465747Y-85828738D01*
G37*
G36*
X129900062Y-86394424D02*
X129228311Y-87066175D01*
X127884808Y-85722672D01*
X128556559Y-85050921D01*
X129900062Y-86394424D01*
X129900062Y-86394424D01*
G37*
G36*
X129334377Y-86960109D02*
X128662626Y-87631860D01*
X127319123Y-86288357D01*
X127990874Y-85616606D01*
X129334377Y-86960109D01*
X129334377Y-86960109D01*
G37*
G36*
X128768691Y-87525794D02*
X128096940Y-88197545D01*
X126753437Y-86854042D01*
X127425188Y-86182291D01*
X128768691Y-87525794D01*
X128768691Y-87525794D01*
G37*
G36*
X140962555Y-84217281D02*
X142129281Y-83050555D01*
X143119231Y-84040505D01*
X141952505Y-85207231D01*
X140962555Y-84217281D01*
X140962555Y-84217281D01*
G37*
G36*
X142376769Y-85631495D02*
X143543495Y-84464769D01*
X144533445Y-85454719D01*
X143366719Y-86621445D01*
X142376769Y-85631495D01*
X142376769Y-85631495D01*
G37*
G36*
X142129281Y-93733445D02*
X140962555Y-92566719D01*
X141952505Y-91576769D01*
X143119231Y-92743495D01*
X142129281Y-93733445D01*
X142129281Y-93733445D01*
G37*
G36*
X143543495Y-92319231D02*
X142376769Y-91152505D01*
X143366719Y-90162555D01*
X144533445Y-91329281D01*
X143543495Y-92319231D01*
X143543495Y-92319231D01*
G37*
D14*
X118999000Y-84852000D03*
X118999000Y-86852000D03*
D10*
G36*
X128277445Y-92566719D02*
X127110719Y-93733445D01*
X126120769Y-92743495D01*
X127287495Y-91576769D01*
X128277445Y-92566719D01*
X128277445Y-92566719D01*
G37*
G36*
X126863231Y-91152505D02*
X125696505Y-92319231D01*
X124706555Y-91329281D01*
X125873281Y-90162555D01*
X126863231Y-91152505D01*
X126863231Y-91152505D01*
G37*
G36*
X127110719Y-83050555D02*
X128277445Y-84217281D01*
X127287495Y-85207231D01*
X126120769Y-84040505D01*
X127110719Y-83050555D01*
X127110719Y-83050555D01*
G37*
G36*
X125696505Y-84464769D02*
X126863231Y-85631495D01*
X125873281Y-86621445D01*
X124706555Y-85454719D01*
X125696505Y-84464769D01*
X125696505Y-84464769D01*
G37*
D15*
X112268000Y-85410000D03*
X112268000Y-87310000D03*
X149352000Y-90490000D03*
X149352000Y-92390000D03*
X151892000Y-90490000D03*
X151892000Y-92390000D03*
X154432000Y-90490000D03*
X154432000Y-92390000D03*
X159512000Y-90490000D03*
X159512000Y-92390000D03*
D16*
X112268000Y-91473020D03*
X112268000Y-89374980D03*
D17*
X139700000Y-80772000D03*
X111760000Y-80772000D03*
X114300000Y-80772000D03*
X116840000Y-80772000D03*
X119380000Y-80772000D03*
X121920000Y-80772000D03*
X124460000Y-80772000D03*
X127000000Y-80772000D03*
X129540000Y-80772000D03*
X144780000Y-80772000D03*
X147320000Y-80772000D03*
X149860000Y-80772000D03*
X152400000Y-80772000D03*
X154940000Y-80772000D03*
X157480000Y-80772000D03*
X160020000Y-80772000D03*
X142240000Y-80772000D03*
X139700000Y-96012000D03*
D18*
X111760000Y-96012000D03*
D17*
X114300000Y-96012000D03*
X116840000Y-96012000D03*
X119380000Y-96012000D03*
X121920000Y-96012000D03*
X124460000Y-96012000D03*
X127000000Y-96012000D03*
X129540000Y-96012000D03*
X144780000Y-96012000D03*
X147320000Y-96012000D03*
X149860000Y-96012000D03*
X152400000Y-96012000D03*
X154940000Y-96012000D03*
X157480000Y-96012000D03*
X160020000Y-96012000D03*
X142240000Y-96012000D03*
M02*
