G04 #@! TF.FileFunction,Copper,L2,Inr,Signal*
%FSLAX46Y46*%
G04 Gerber Fmt 4.6, Leading zero omitted, Abs format (unit mm)*
G04 Created by KiCad (PCBNEW (2015-08-16 BZR 6097, Git b384c94)-product) date 11/17/2015 9:28:50 PM*
%MOMM*%
G01*
G04 APERTURE LIST*
%ADD10C,0.100000*%
%ADD11R,1.727200X1.727200*%
%ADD12O,1.727200X1.727200*%
%ADD13O,1.727200X2.032000*%
%ADD14R,1.727200X2.032000*%
%ADD15C,0.600000*%
%ADD16C,0.381000*%
%ADD17C,0.635000*%
%ADD18C,0.254000*%
G04 APERTURE END LIST*
D10*
D11*
X149352000Y-87884000D03*
D12*
X149352000Y-85344000D03*
X151892000Y-87884000D03*
X151892000Y-85344000D03*
X154432000Y-87884000D03*
X154432000Y-85344000D03*
X156972000Y-87884000D03*
X156972000Y-85344000D03*
X159512000Y-87884000D03*
X159512000Y-85344000D03*
D13*
X139700000Y-80772000D03*
X111760000Y-80772000D03*
X114300000Y-80772000D03*
X116840000Y-80772000D03*
X119380000Y-80772000D03*
X121920000Y-80772000D03*
X124460000Y-80772000D03*
X127000000Y-80772000D03*
X129540000Y-80772000D03*
X144780000Y-80772000D03*
X147320000Y-80772000D03*
X149860000Y-80772000D03*
X152400000Y-80772000D03*
X154940000Y-80772000D03*
X157480000Y-80772000D03*
X160020000Y-80772000D03*
X142240000Y-80772000D03*
X139700000Y-96012000D03*
D14*
X111760000Y-96012000D03*
D13*
X114300000Y-96012000D03*
X116840000Y-96012000D03*
X119380000Y-96012000D03*
X121920000Y-96012000D03*
X124460000Y-96012000D03*
X127000000Y-96012000D03*
X129540000Y-96012000D03*
X144780000Y-96012000D03*
X147320000Y-96012000D03*
X149860000Y-96012000D03*
X152400000Y-96012000D03*
X154940000Y-96012000D03*
X157480000Y-96012000D03*
X160020000Y-96012000D03*
X142240000Y-96012000D03*
D15*
X125730000Y-93218000D03*
X137668000Y-91440000D03*
X133350000Y-93218000D03*
X130752306Y-86417694D03*
X159004000Y-93472000D03*
X120650000Y-82550000D03*
X136779000Y-85090000D03*
X143256000Y-83185000D03*
X136652000Y-92202000D03*
X131064000Y-90424000D03*
X123952000Y-91186000D03*
X133525509Y-83272967D03*
X119126000Y-88138000D03*
X144780000Y-91948000D03*
X144272000Y-84582000D03*
X125730000Y-87630000D03*
X113919000Y-85471000D03*
X138684000Y-86487000D03*
X135382000Y-83058000D03*
X136779000Y-89789000D03*
X140353081Y-88367295D03*
X130302000Y-89683552D03*
X138430000Y-90297000D03*
X139700000Y-88900000D03*
X137922000Y-87376000D03*
X131776423Y-85161480D03*
X131318000Y-85852000D03*
X129540000Y-87630000D03*
D16*
X130752306Y-87572306D02*
X130752306Y-86841958D01*
X130810000Y-87630000D02*
X130752306Y-87572306D01*
X130752306Y-86841958D02*
X130752306Y-86417694D01*
X125984000Y-93218000D02*
X126492000Y-93726000D01*
D17*
X136779000Y-85090000D02*
X138684000Y-83185000D01*
X138684000Y-83185000D02*
X143256000Y-83185000D01*
X151892000Y-85344000D02*
X151892000Y-84122686D01*
X151892000Y-84122686D02*
X150954314Y-83185000D01*
X150954314Y-83185000D02*
X143680264Y-83185000D01*
X143680264Y-83185000D02*
X143256000Y-83185000D01*
D16*
X137922000Y-87376000D02*
X137414000Y-86868000D01*
X138247499Y-85272501D02*
X144603441Y-85272501D01*
X137414000Y-86868000D02*
X137414000Y-86106000D01*
X137414000Y-86106000D02*
X138247499Y-85272501D01*
X145929041Y-86598101D02*
X152493969Y-86598101D01*
X144603441Y-85272501D02*
X145929041Y-86598101D01*
X152493969Y-86598101D02*
X153146101Y-85945969D01*
X152400000Y-82169000D02*
X152400000Y-80772000D01*
X153146101Y-85945969D02*
X153146101Y-82915101D01*
X153146101Y-82915101D02*
X152400000Y-82169000D01*
D18*
G36*
X138315474Y-80013766D02*
X138201400Y-80587255D01*
X138201400Y-80956745D01*
X138315474Y-81530234D01*
X138640330Y-82016415D01*
X139126511Y-82341271D01*
X139700000Y-82455345D01*
X140273489Y-82341271D01*
X140759670Y-82016415D01*
X140970000Y-81701634D01*
X141180330Y-82016415D01*
X141666511Y-82341271D01*
X142240000Y-82455345D01*
X142813489Y-82341271D01*
X143299670Y-82016415D01*
X143510000Y-81701634D01*
X143720330Y-82016415D01*
X144206511Y-82341271D01*
X144780000Y-82455345D01*
X145353489Y-82341271D01*
X145839670Y-82016415D01*
X146050000Y-81701634D01*
X146260330Y-82016415D01*
X146746511Y-82341271D01*
X147320000Y-82455345D01*
X147893489Y-82341271D01*
X148379670Y-82016415D01*
X148590000Y-81701634D01*
X148800330Y-82016415D01*
X149286511Y-82341271D01*
X149860000Y-82455345D01*
X150433489Y-82341271D01*
X150919670Y-82016415D01*
X151130000Y-81701634D01*
X151340330Y-82016415D01*
X151575391Y-82173478D01*
X151637337Y-82484906D01*
X151816283Y-82752717D01*
X152320601Y-83257035D01*
X152320601Y-83917859D01*
X152251026Y-83889042D01*
X152019000Y-84010183D01*
X152019000Y-85217000D01*
X152039000Y-85217000D01*
X152039000Y-85471000D01*
X152019000Y-85471000D01*
X152019000Y-85491000D01*
X151765000Y-85491000D01*
X151765000Y-85471000D01*
X151745000Y-85471000D01*
X151745000Y-85217000D01*
X151765000Y-85217000D01*
X151765000Y-84010183D01*
X151532974Y-83889042D01*
X151117053Y-84061312D01*
X150685179Y-84455510D01*
X150627664Y-84578228D01*
X150411670Y-84254971D01*
X149925489Y-83930115D01*
X149352000Y-83816041D01*
X148778511Y-83930115D01*
X148292330Y-84254971D01*
X147967474Y-84741152D01*
X147853400Y-85314641D01*
X147853400Y-85373359D01*
X147932814Y-85772601D01*
X146270974Y-85772601D01*
X145206891Y-84708517D01*
X145207162Y-84396833D01*
X145065117Y-84053057D01*
X144802327Y-83789808D01*
X144458799Y-83647162D01*
X144086833Y-83646838D01*
X143743057Y-83788883D01*
X143479808Y-84051673D01*
X143337162Y-84395201D01*
X143337117Y-84447001D01*
X138247504Y-84447001D01*
X138247499Y-84447000D01*
X137931594Y-84509838D01*
X137663782Y-84688784D01*
X137663780Y-84688787D01*
X136830283Y-85522283D01*
X136651337Y-85790094D01*
X136638184Y-85856218D01*
X136588500Y-86106000D01*
X136588500Y-86868000D01*
X136651337Y-87183906D01*
X136830283Y-87451717D01*
X137020006Y-87641439D01*
X137128883Y-87904943D01*
X137391673Y-88168192D01*
X137735201Y-88310838D01*
X138107167Y-88311162D01*
X138450943Y-88169117D01*
X138714192Y-87906327D01*
X138856838Y-87562799D01*
X138856961Y-87422151D01*
X138869167Y-87422162D01*
X139212943Y-87280117D01*
X139476192Y-87017327D01*
X139618838Y-86673799D01*
X139619162Y-86301833D01*
X139534941Y-86098001D01*
X144261507Y-86098001D01*
X145345322Y-87181815D01*
X145345324Y-87181818D01*
X145613136Y-87360764D01*
X145929041Y-87423601D01*
X147840960Y-87423601D01*
X147840960Y-88747600D01*
X147885238Y-88982917D01*
X148024310Y-89199041D01*
X148236510Y-89344031D01*
X148488400Y-89395040D01*
X150215600Y-89395040D01*
X150450917Y-89350762D01*
X150667041Y-89211690D01*
X150812031Y-88999490D01*
X150820864Y-88955869D01*
X150832330Y-88973029D01*
X151318511Y-89297885D01*
X151892000Y-89411959D01*
X152465489Y-89297885D01*
X152951670Y-88973029D01*
X153162000Y-88658248D01*
X153372330Y-88973029D01*
X153858511Y-89297885D01*
X154432000Y-89411959D01*
X155005489Y-89297885D01*
X155491670Y-88973029D01*
X155702000Y-88658248D01*
X155912330Y-88973029D01*
X156398511Y-89297885D01*
X156972000Y-89411959D01*
X157545489Y-89297885D01*
X158031670Y-88973029D01*
X158242000Y-88658248D01*
X158452330Y-88973029D01*
X158938511Y-89297885D01*
X159512000Y-89411959D01*
X160085489Y-89297885D01*
X160571670Y-88973029D01*
X160834000Y-88580425D01*
X160834000Y-94603433D01*
X160593489Y-94442729D01*
X160020000Y-94328655D01*
X159446511Y-94442729D01*
X158960330Y-94767585D01*
X158750000Y-95082366D01*
X158539670Y-94767585D01*
X158053489Y-94442729D01*
X157480000Y-94328655D01*
X156906511Y-94442729D01*
X156420330Y-94767585D01*
X156210000Y-95082366D01*
X155999670Y-94767585D01*
X155513489Y-94442729D01*
X154940000Y-94328655D01*
X154366511Y-94442729D01*
X153880330Y-94767585D01*
X153670000Y-95082366D01*
X153459670Y-94767585D01*
X152973489Y-94442729D01*
X152400000Y-94328655D01*
X151826511Y-94442729D01*
X151340330Y-94767585D01*
X151130000Y-95082366D01*
X150919670Y-94767585D01*
X150433489Y-94442729D01*
X149860000Y-94328655D01*
X149286511Y-94442729D01*
X148800330Y-94767585D01*
X148590000Y-95082366D01*
X148379670Y-94767585D01*
X147893489Y-94442729D01*
X147320000Y-94328655D01*
X146746511Y-94442729D01*
X146260330Y-94767585D01*
X146050000Y-95082366D01*
X145839670Y-94767585D01*
X145353489Y-94442729D01*
X144780000Y-94328655D01*
X144206511Y-94442729D01*
X143720330Y-94767585D01*
X143510000Y-95082366D01*
X143299670Y-94767585D01*
X142813489Y-94442729D01*
X142240000Y-94328655D01*
X141666511Y-94442729D01*
X141180330Y-94767585D01*
X140970000Y-95082366D01*
X140759670Y-94767585D01*
X140273489Y-94442729D01*
X139700000Y-94328655D01*
X139126511Y-94442729D01*
X138640330Y-94767585D01*
X138315474Y-95253766D01*
X138201400Y-95827255D01*
X138201400Y-96196745D01*
X138315474Y-96770234D01*
X138352736Y-96826000D01*
X130887264Y-96826000D01*
X130924526Y-96770234D01*
X131038600Y-96196745D01*
X131038600Y-95827255D01*
X130924526Y-95253766D01*
X130599670Y-94767585D01*
X130113489Y-94442729D01*
X129540000Y-94328655D01*
X128966511Y-94442729D01*
X128480330Y-94767585D01*
X128270000Y-95082366D01*
X128059670Y-94767585D01*
X127573489Y-94442729D01*
X127000000Y-94328655D01*
X126426511Y-94442729D01*
X125940330Y-94767585D01*
X125730000Y-95082366D01*
X125519670Y-94767585D01*
X125033489Y-94442729D01*
X124460000Y-94328655D01*
X123886511Y-94442729D01*
X123400330Y-94767585D01*
X123190000Y-95082366D01*
X122979670Y-94767585D01*
X122493489Y-94442729D01*
X121920000Y-94328655D01*
X121346511Y-94442729D01*
X120860330Y-94767585D01*
X120650000Y-95082366D01*
X120439670Y-94767585D01*
X119953489Y-94442729D01*
X119380000Y-94328655D01*
X118806511Y-94442729D01*
X118320330Y-94767585D01*
X118110000Y-95082366D01*
X117899670Y-94767585D01*
X117413489Y-94442729D01*
X116840000Y-94328655D01*
X116266511Y-94442729D01*
X115780330Y-94767585D01*
X115570000Y-95082366D01*
X115359670Y-94767585D01*
X114873489Y-94442729D01*
X114300000Y-94328655D01*
X113726511Y-94442729D01*
X113240330Y-94767585D01*
X113225500Y-94789780D01*
X113161927Y-94636302D01*
X112983299Y-94457673D01*
X112749910Y-94361000D01*
X112045750Y-94361000D01*
X111887000Y-94519750D01*
X111887000Y-95885000D01*
X111907000Y-95885000D01*
X111907000Y-96139000D01*
X111887000Y-96139000D01*
X111887000Y-96159000D01*
X111633000Y-96159000D01*
X111633000Y-96139000D01*
X111613000Y-96139000D01*
X111613000Y-95885000D01*
X111633000Y-95885000D01*
X111633000Y-94519750D01*
X111474250Y-94361000D01*
X111073000Y-94361000D01*
X111073000Y-92387167D01*
X135716838Y-92387167D01*
X135858883Y-92730943D01*
X136121673Y-92994192D01*
X136465201Y-93136838D01*
X136837167Y-93137162D01*
X137180943Y-92995117D01*
X137444192Y-92732327D01*
X137586838Y-92388799D01*
X137587060Y-92133167D01*
X143844838Y-92133167D01*
X143986883Y-92476943D01*
X144249673Y-92740192D01*
X144593201Y-92882838D01*
X144965167Y-92883162D01*
X145308943Y-92741117D01*
X145572192Y-92478327D01*
X145714838Y-92134799D01*
X145715162Y-91762833D01*
X145573117Y-91419057D01*
X145310327Y-91155808D01*
X144966799Y-91013162D01*
X144594833Y-91012838D01*
X144251057Y-91154883D01*
X143987808Y-91417673D01*
X143845162Y-91761201D01*
X143844838Y-92133167D01*
X137587060Y-92133167D01*
X137587162Y-92016833D01*
X137445117Y-91673057D01*
X137182327Y-91409808D01*
X136838799Y-91267162D01*
X136466833Y-91266838D01*
X136123057Y-91408883D01*
X135859808Y-91671673D01*
X135717162Y-92015201D01*
X135716838Y-92387167D01*
X111073000Y-92387167D01*
X111073000Y-91371167D01*
X123016838Y-91371167D01*
X123158883Y-91714943D01*
X123421673Y-91978192D01*
X123765201Y-92120838D01*
X124137167Y-92121162D01*
X124480943Y-91979117D01*
X124744192Y-91716327D01*
X124886838Y-91372799D01*
X124887162Y-91000833D01*
X124745117Y-90657057D01*
X124482327Y-90393808D01*
X124138799Y-90251162D01*
X123766833Y-90250838D01*
X123423057Y-90392883D01*
X123159808Y-90655673D01*
X123017162Y-90999201D01*
X123016838Y-91371167D01*
X111073000Y-91371167D01*
X111073000Y-89868719D01*
X129366838Y-89868719D01*
X129508883Y-90212495D01*
X129771673Y-90475744D01*
X130115201Y-90618390D01*
X130132655Y-90618405D01*
X130270883Y-90952943D01*
X130533673Y-91216192D01*
X130877201Y-91358838D01*
X131249167Y-91359162D01*
X131592943Y-91217117D01*
X131856192Y-90954327D01*
X131998838Y-90610799D01*
X131999162Y-90238833D01*
X131889805Y-89974167D01*
X135843838Y-89974167D01*
X135985883Y-90317943D01*
X136248673Y-90581192D01*
X136592201Y-90723838D01*
X136964167Y-90724162D01*
X137307943Y-90582117D01*
X137494914Y-90395472D01*
X137494838Y-90482167D01*
X137636883Y-90825943D01*
X137899673Y-91089192D01*
X138243201Y-91231838D01*
X138615167Y-91232162D01*
X138958943Y-91090117D01*
X139222192Y-90827327D01*
X139364838Y-90483799D01*
X139365162Y-90111833D01*
X139223117Y-89768057D01*
X138960327Y-89504808D01*
X138616799Y-89362162D01*
X138244833Y-89361838D01*
X137901057Y-89503883D01*
X137714086Y-89690528D01*
X137714162Y-89603833D01*
X137572117Y-89260057D01*
X137397532Y-89085167D01*
X138764838Y-89085167D01*
X138906883Y-89428943D01*
X139169673Y-89692192D01*
X139513201Y-89834838D01*
X139885167Y-89835162D01*
X140228943Y-89693117D01*
X140492192Y-89430327D01*
X140546747Y-89298945D01*
X140882024Y-89160412D01*
X141145273Y-88897622D01*
X141287919Y-88554094D01*
X141288243Y-88182128D01*
X141146198Y-87838352D01*
X140883408Y-87575103D01*
X140539880Y-87432457D01*
X140167914Y-87432133D01*
X139824138Y-87574178D01*
X139560889Y-87836968D01*
X139506334Y-87968350D01*
X139171057Y-88106883D01*
X138907808Y-88369673D01*
X138765162Y-88713201D01*
X138764838Y-89085167D01*
X137397532Y-89085167D01*
X137309327Y-88996808D01*
X136965799Y-88854162D01*
X136593833Y-88853838D01*
X136250057Y-88995883D01*
X135986808Y-89258673D01*
X135844162Y-89602201D01*
X135843838Y-89974167D01*
X131889805Y-89974167D01*
X131857117Y-89895057D01*
X131594327Y-89631808D01*
X131250799Y-89489162D01*
X131233345Y-89489147D01*
X131095117Y-89154609D01*
X130832327Y-88891360D01*
X130488799Y-88748714D01*
X130116833Y-88748390D01*
X129773057Y-88890435D01*
X129509808Y-89153225D01*
X129367162Y-89496753D01*
X129366838Y-89868719D01*
X111073000Y-89868719D01*
X111073000Y-88323167D01*
X118190838Y-88323167D01*
X118332883Y-88666943D01*
X118595673Y-88930192D01*
X118939201Y-89072838D01*
X119311167Y-89073162D01*
X119654943Y-88931117D01*
X119918192Y-88668327D01*
X120060838Y-88324799D01*
X120061162Y-87952833D01*
X120004280Y-87815167D01*
X124794838Y-87815167D01*
X124936883Y-88158943D01*
X125199673Y-88422192D01*
X125543201Y-88564838D01*
X125915167Y-88565162D01*
X126258943Y-88423117D01*
X126522192Y-88160327D01*
X126664838Y-87816799D01*
X126664839Y-87815167D01*
X128604838Y-87815167D01*
X128746883Y-88158943D01*
X129009673Y-88422192D01*
X129353201Y-88564838D01*
X129725167Y-88565162D01*
X130068943Y-88423117D01*
X130332192Y-88160327D01*
X130474838Y-87816799D01*
X130475162Y-87444833D01*
X130333117Y-87101057D01*
X130070327Y-86837808D01*
X129726799Y-86695162D01*
X129354833Y-86694838D01*
X129011057Y-86836883D01*
X128747808Y-87099673D01*
X128605162Y-87443201D01*
X128604838Y-87815167D01*
X126664839Y-87815167D01*
X126665162Y-87444833D01*
X126523117Y-87101057D01*
X126260327Y-86837808D01*
X125916799Y-86695162D01*
X125544833Y-86694838D01*
X125201057Y-86836883D01*
X124937808Y-87099673D01*
X124795162Y-87443201D01*
X124794838Y-87815167D01*
X120004280Y-87815167D01*
X119919117Y-87609057D01*
X119656327Y-87345808D01*
X119312799Y-87203162D01*
X118940833Y-87202838D01*
X118597057Y-87344883D01*
X118333808Y-87607673D01*
X118191162Y-87951201D01*
X118190838Y-88323167D01*
X111073000Y-88323167D01*
X111073000Y-85656167D01*
X112983838Y-85656167D01*
X113125883Y-85999943D01*
X113388673Y-86263192D01*
X113732201Y-86405838D01*
X114104167Y-86406162D01*
X114447943Y-86264117D01*
X114675289Y-86037167D01*
X130382838Y-86037167D01*
X130524883Y-86380943D01*
X130787673Y-86644192D01*
X131131201Y-86786838D01*
X131503167Y-86787162D01*
X131846943Y-86645117D01*
X132110192Y-86382327D01*
X132252838Y-86038799D01*
X132252892Y-85976279D01*
X132305366Y-85954597D01*
X132568615Y-85691807D01*
X132711261Y-85348279D01*
X132711585Y-84976313D01*
X132569540Y-84632537D01*
X132306750Y-84369288D01*
X131963222Y-84226642D01*
X131591256Y-84226318D01*
X131247480Y-84368363D01*
X130984231Y-84631153D01*
X130841585Y-84974681D01*
X130841531Y-85037201D01*
X130789057Y-85058883D01*
X130525808Y-85321673D01*
X130383162Y-85665201D01*
X130382838Y-86037167D01*
X114675289Y-86037167D01*
X114711192Y-86001327D01*
X114853838Y-85657799D01*
X114854162Y-85285833D01*
X114712117Y-84942057D01*
X114449327Y-84678808D01*
X114105799Y-84536162D01*
X113733833Y-84535838D01*
X113390057Y-84677883D01*
X113126808Y-84940673D01*
X112984162Y-85284201D01*
X112983838Y-85656167D01*
X111073000Y-85656167D01*
X111073000Y-83458134D01*
X132590347Y-83458134D01*
X132732392Y-83801910D01*
X132995182Y-84065159D01*
X133338710Y-84207805D01*
X133710676Y-84208129D01*
X134054452Y-84066084D01*
X134317701Y-83803294D01*
X134460347Y-83459766D01*
X134460507Y-83276248D01*
X134588883Y-83586943D01*
X134851673Y-83850192D01*
X135195201Y-83992838D01*
X135567167Y-83993162D01*
X135910943Y-83851117D01*
X136174192Y-83588327D01*
X136316838Y-83244799D01*
X136317162Y-82872833D01*
X136175117Y-82529057D01*
X135912327Y-82265808D01*
X135568799Y-82123162D01*
X135196833Y-82122838D01*
X134853057Y-82264883D01*
X134589808Y-82527673D01*
X134447162Y-82871201D01*
X134447002Y-83054719D01*
X134318626Y-82744024D01*
X134055836Y-82480775D01*
X133712308Y-82338129D01*
X133340342Y-82337805D01*
X132996566Y-82479850D01*
X132733317Y-82742640D01*
X132590671Y-83086168D01*
X132590347Y-83458134D01*
X111073000Y-83458134D01*
X111073000Y-82265425D01*
X111186511Y-82341271D01*
X111760000Y-82455345D01*
X112333489Y-82341271D01*
X112819670Y-82016415D01*
X113030000Y-81701634D01*
X113240330Y-82016415D01*
X113726511Y-82341271D01*
X114300000Y-82455345D01*
X114873489Y-82341271D01*
X115359670Y-82016415D01*
X115570000Y-81701634D01*
X115780330Y-82016415D01*
X116266511Y-82341271D01*
X116840000Y-82455345D01*
X117413489Y-82341271D01*
X117899670Y-82016415D01*
X118110000Y-81701634D01*
X118320330Y-82016415D01*
X118806511Y-82341271D01*
X119380000Y-82455345D01*
X119953489Y-82341271D01*
X120439670Y-82016415D01*
X120650000Y-81701634D01*
X120860330Y-82016415D01*
X121346511Y-82341271D01*
X121920000Y-82455345D01*
X122493489Y-82341271D01*
X122979670Y-82016415D01*
X123190000Y-81701634D01*
X123400330Y-82016415D01*
X123886511Y-82341271D01*
X124460000Y-82455345D01*
X125033489Y-82341271D01*
X125519670Y-82016415D01*
X125730000Y-81701634D01*
X125940330Y-82016415D01*
X126426511Y-82341271D01*
X127000000Y-82455345D01*
X127573489Y-82341271D01*
X128059670Y-82016415D01*
X128270000Y-81701634D01*
X128480330Y-82016415D01*
X128966511Y-82341271D01*
X129540000Y-82455345D01*
X130113489Y-82341271D01*
X130599670Y-82016415D01*
X130924526Y-81530234D01*
X131038600Y-80956745D01*
X131038600Y-80587255D01*
X130924526Y-80013766D01*
X130887264Y-79958000D01*
X138352736Y-79958000D01*
X138315474Y-80013766D01*
X138315474Y-80013766D01*
G37*
X138315474Y-80013766D02*
X138201400Y-80587255D01*
X138201400Y-80956745D01*
X138315474Y-81530234D01*
X138640330Y-82016415D01*
X139126511Y-82341271D01*
X139700000Y-82455345D01*
X140273489Y-82341271D01*
X140759670Y-82016415D01*
X140970000Y-81701634D01*
X141180330Y-82016415D01*
X141666511Y-82341271D01*
X142240000Y-82455345D01*
X142813489Y-82341271D01*
X143299670Y-82016415D01*
X143510000Y-81701634D01*
X143720330Y-82016415D01*
X144206511Y-82341271D01*
X144780000Y-82455345D01*
X145353489Y-82341271D01*
X145839670Y-82016415D01*
X146050000Y-81701634D01*
X146260330Y-82016415D01*
X146746511Y-82341271D01*
X147320000Y-82455345D01*
X147893489Y-82341271D01*
X148379670Y-82016415D01*
X148590000Y-81701634D01*
X148800330Y-82016415D01*
X149286511Y-82341271D01*
X149860000Y-82455345D01*
X150433489Y-82341271D01*
X150919670Y-82016415D01*
X151130000Y-81701634D01*
X151340330Y-82016415D01*
X151575391Y-82173478D01*
X151637337Y-82484906D01*
X151816283Y-82752717D01*
X152320601Y-83257035D01*
X152320601Y-83917859D01*
X152251026Y-83889042D01*
X152019000Y-84010183D01*
X152019000Y-85217000D01*
X152039000Y-85217000D01*
X152039000Y-85471000D01*
X152019000Y-85471000D01*
X152019000Y-85491000D01*
X151765000Y-85491000D01*
X151765000Y-85471000D01*
X151745000Y-85471000D01*
X151745000Y-85217000D01*
X151765000Y-85217000D01*
X151765000Y-84010183D01*
X151532974Y-83889042D01*
X151117053Y-84061312D01*
X150685179Y-84455510D01*
X150627664Y-84578228D01*
X150411670Y-84254971D01*
X149925489Y-83930115D01*
X149352000Y-83816041D01*
X148778511Y-83930115D01*
X148292330Y-84254971D01*
X147967474Y-84741152D01*
X147853400Y-85314641D01*
X147853400Y-85373359D01*
X147932814Y-85772601D01*
X146270974Y-85772601D01*
X145206891Y-84708517D01*
X145207162Y-84396833D01*
X145065117Y-84053057D01*
X144802327Y-83789808D01*
X144458799Y-83647162D01*
X144086833Y-83646838D01*
X143743057Y-83788883D01*
X143479808Y-84051673D01*
X143337162Y-84395201D01*
X143337117Y-84447001D01*
X138247504Y-84447001D01*
X138247499Y-84447000D01*
X137931594Y-84509838D01*
X137663782Y-84688784D01*
X137663780Y-84688787D01*
X136830283Y-85522283D01*
X136651337Y-85790094D01*
X136638184Y-85856218D01*
X136588500Y-86106000D01*
X136588500Y-86868000D01*
X136651337Y-87183906D01*
X136830283Y-87451717D01*
X137020006Y-87641439D01*
X137128883Y-87904943D01*
X137391673Y-88168192D01*
X137735201Y-88310838D01*
X138107167Y-88311162D01*
X138450943Y-88169117D01*
X138714192Y-87906327D01*
X138856838Y-87562799D01*
X138856961Y-87422151D01*
X138869167Y-87422162D01*
X139212943Y-87280117D01*
X139476192Y-87017327D01*
X139618838Y-86673799D01*
X139619162Y-86301833D01*
X139534941Y-86098001D01*
X144261507Y-86098001D01*
X145345322Y-87181815D01*
X145345324Y-87181818D01*
X145613136Y-87360764D01*
X145929041Y-87423601D01*
X147840960Y-87423601D01*
X147840960Y-88747600D01*
X147885238Y-88982917D01*
X148024310Y-89199041D01*
X148236510Y-89344031D01*
X148488400Y-89395040D01*
X150215600Y-89395040D01*
X150450917Y-89350762D01*
X150667041Y-89211690D01*
X150812031Y-88999490D01*
X150820864Y-88955869D01*
X150832330Y-88973029D01*
X151318511Y-89297885D01*
X151892000Y-89411959D01*
X152465489Y-89297885D01*
X152951670Y-88973029D01*
X153162000Y-88658248D01*
X153372330Y-88973029D01*
X153858511Y-89297885D01*
X154432000Y-89411959D01*
X155005489Y-89297885D01*
X155491670Y-88973029D01*
X155702000Y-88658248D01*
X155912330Y-88973029D01*
X156398511Y-89297885D01*
X156972000Y-89411959D01*
X157545489Y-89297885D01*
X158031670Y-88973029D01*
X158242000Y-88658248D01*
X158452330Y-88973029D01*
X158938511Y-89297885D01*
X159512000Y-89411959D01*
X160085489Y-89297885D01*
X160571670Y-88973029D01*
X160834000Y-88580425D01*
X160834000Y-94603433D01*
X160593489Y-94442729D01*
X160020000Y-94328655D01*
X159446511Y-94442729D01*
X158960330Y-94767585D01*
X158750000Y-95082366D01*
X158539670Y-94767585D01*
X158053489Y-94442729D01*
X157480000Y-94328655D01*
X156906511Y-94442729D01*
X156420330Y-94767585D01*
X156210000Y-95082366D01*
X155999670Y-94767585D01*
X155513489Y-94442729D01*
X154940000Y-94328655D01*
X154366511Y-94442729D01*
X153880330Y-94767585D01*
X153670000Y-95082366D01*
X153459670Y-94767585D01*
X152973489Y-94442729D01*
X152400000Y-94328655D01*
X151826511Y-94442729D01*
X151340330Y-94767585D01*
X151130000Y-95082366D01*
X150919670Y-94767585D01*
X150433489Y-94442729D01*
X149860000Y-94328655D01*
X149286511Y-94442729D01*
X148800330Y-94767585D01*
X148590000Y-95082366D01*
X148379670Y-94767585D01*
X147893489Y-94442729D01*
X147320000Y-94328655D01*
X146746511Y-94442729D01*
X146260330Y-94767585D01*
X146050000Y-95082366D01*
X145839670Y-94767585D01*
X145353489Y-94442729D01*
X144780000Y-94328655D01*
X144206511Y-94442729D01*
X143720330Y-94767585D01*
X143510000Y-95082366D01*
X143299670Y-94767585D01*
X142813489Y-94442729D01*
X142240000Y-94328655D01*
X141666511Y-94442729D01*
X141180330Y-94767585D01*
X140970000Y-95082366D01*
X140759670Y-94767585D01*
X140273489Y-94442729D01*
X139700000Y-94328655D01*
X139126511Y-94442729D01*
X138640330Y-94767585D01*
X138315474Y-95253766D01*
X138201400Y-95827255D01*
X138201400Y-96196745D01*
X138315474Y-96770234D01*
X138352736Y-96826000D01*
X130887264Y-96826000D01*
X130924526Y-96770234D01*
X131038600Y-96196745D01*
X131038600Y-95827255D01*
X130924526Y-95253766D01*
X130599670Y-94767585D01*
X130113489Y-94442729D01*
X129540000Y-94328655D01*
X128966511Y-94442729D01*
X128480330Y-94767585D01*
X128270000Y-95082366D01*
X128059670Y-94767585D01*
X127573489Y-94442729D01*
X127000000Y-94328655D01*
X126426511Y-94442729D01*
X125940330Y-94767585D01*
X125730000Y-95082366D01*
X125519670Y-94767585D01*
X125033489Y-94442729D01*
X124460000Y-94328655D01*
X123886511Y-94442729D01*
X123400330Y-94767585D01*
X123190000Y-95082366D01*
X122979670Y-94767585D01*
X122493489Y-94442729D01*
X121920000Y-94328655D01*
X121346511Y-94442729D01*
X120860330Y-94767585D01*
X120650000Y-95082366D01*
X120439670Y-94767585D01*
X119953489Y-94442729D01*
X119380000Y-94328655D01*
X118806511Y-94442729D01*
X118320330Y-94767585D01*
X118110000Y-95082366D01*
X117899670Y-94767585D01*
X117413489Y-94442729D01*
X116840000Y-94328655D01*
X116266511Y-94442729D01*
X115780330Y-94767585D01*
X115570000Y-95082366D01*
X115359670Y-94767585D01*
X114873489Y-94442729D01*
X114300000Y-94328655D01*
X113726511Y-94442729D01*
X113240330Y-94767585D01*
X113225500Y-94789780D01*
X113161927Y-94636302D01*
X112983299Y-94457673D01*
X112749910Y-94361000D01*
X112045750Y-94361000D01*
X111887000Y-94519750D01*
X111887000Y-95885000D01*
X111907000Y-95885000D01*
X111907000Y-96139000D01*
X111887000Y-96139000D01*
X111887000Y-96159000D01*
X111633000Y-96159000D01*
X111633000Y-96139000D01*
X111613000Y-96139000D01*
X111613000Y-95885000D01*
X111633000Y-95885000D01*
X111633000Y-94519750D01*
X111474250Y-94361000D01*
X111073000Y-94361000D01*
X111073000Y-92387167D01*
X135716838Y-92387167D01*
X135858883Y-92730943D01*
X136121673Y-92994192D01*
X136465201Y-93136838D01*
X136837167Y-93137162D01*
X137180943Y-92995117D01*
X137444192Y-92732327D01*
X137586838Y-92388799D01*
X137587060Y-92133167D01*
X143844838Y-92133167D01*
X143986883Y-92476943D01*
X144249673Y-92740192D01*
X144593201Y-92882838D01*
X144965167Y-92883162D01*
X145308943Y-92741117D01*
X145572192Y-92478327D01*
X145714838Y-92134799D01*
X145715162Y-91762833D01*
X145573117Y-91419057D01*
X145310327Y-91155808D01*
X144966799Y-91013162D01*
X144594833Y-91012838D01*
X144251057Y-91154883D01*
X143987808Y-91417673D01*
X143845162Y-91761201D01*
X143844838Y-92133167D01*
X137587060Y-92133167D01*
X137587162Y-92016833D01*
X137445117Y-91673057D01*
X137182327Y-91409808D01*
X136838799Y-91267162D01*
X136466833Y-91266838D01*
X136123057Y-91408883D01*
X135859808Y-91671673D01*
X135717162Y-92015201D01*
X135716838Y-92387167D01*
X111073000Y-92387167D01*
X111073000Y-91371167D01*
X123016838Y-91371167D01*
X123158883Y-91714943D01*
X123421673Y-91978192D01*
X123765201Y-92120838D01*
X124137167Y-92121162D01*
X124480943Y-91979117D01*
X124744192Y-91716327D01*
X124886838Y-91372799D01*
X124887162Y-91000833D01*
X124745117Y-90657057D01*
X124482327Y-90393808D01*
X124138799Y-90251162D01*
X123766833Y-90250838D01*
X123423057Y-90392883D01*
X123159808Y-90655673D01*
X123017162Y-90999201D01*
X123016838Y-91371167D01*
X111073000Y-91371167D01*
X111073000Y-89868719D01*
X129366838Y-89868719D01*
X129508883Y-90212495D01*
X129771673Y-90475744D01*
X130115201Y-90618390D01*
X130132655Y-90618405D01*
X130270883Y-90952943D01*
X130533673Y-91216192D01*
X130877201Y-91358838D01*
X131249167Y-91359162D01*
X131592943Y-91217117D01*
X131856192Y-90954327D01*
X131998838Y-90610799D01*
X131999162Y-90238833D01*
X131889805Y-89974167D01*
X135843838Y-89974167D01*
X135985883Y-90317943D01*
X136248673Y-90581192D01*
X136592201Y-90723838D01*
X136964167Y-90724162D01*
X137307943Y-90582117D01*
X137494914Y-90395472D01*
X137494838Y-90482167D01*
X137636883Y-90825943D01*
X137899673Y-91089192D01*
X138243201Y-91231838D01*
X138615167Y-91232162D01*
X138958943Y-91090117D01*
X139222192Y-90827327D01*
X139364838Y-90483799D01*
X139365162Y-90111833D01*
X139223117Y-89768057D01*
X138960327Y-89504808D01*
X138616799Y-89362162D01*
X138244833Y-89361838D01*
X137901057Y-89503883D01*
X137714086Y-89690528D01*
X137714162Y-89603833D01*
X137572117Y-89260057D01*
X137397532Y-89085167D01*
X138764838Y-89085167D01*
X138906883Y-89428943D01*
X139169673Y-89692192D01*
X139513201Y-89834838D01*
X139885167Y-89835162D01*
X140228943Y-89693117D01*
X140492192Y-89430327D01*
X140546747Y-89298945D01*
X140882024Y-89160412D01*
X141145273Y-88897622D01*
X141287919Y-88554094D01*
X141288243Y-88182128D01*
X141146198Y-87838352D01*
X140883408Y-87575103D01*
X140539880Y-87432457D01*
X140167914Y-87432133D01*
X139824138Y-87574178D01*
X139560889Y-87836968D01*
X139506334Y-87968350D01*
X139171057Y-88106883D01*
X138907808Y-88369673D01*
X138765162Y-88713201D01*
X138764838Y-89085167D01*
X137397532Y-89085167D01*
X137309327Y-88996808D01*
X136965799Y-88854162D01*
X136593833Y-88853838D01*
X136250057Y-88995883D01*
X135986808Y-89258673D01*
X135844162Y-89602201D01*
X135843838Y-89974167D01*
X131889805Y-89974167D01*
X131857117Y-89895057D01*
X131594327Y-89631808D01*
X131250799Y-89489162D01*
X131233345Y-89489147D01*
X131095117Y-89154609D01*
X130832327Y-88891360D01*
X130488799Y-88748714D01*
X130116833Y-88748390D01*
X129773057Y-88890435D01*
X129509808Y-89153225D01*
X129367162Y-89496753D01*
X129366838Y-89868719D01*
X111073000Y-89868719D01*
X111073000Y-88323167D01*
X118190838Y-88323167D01*
X118332883Y-88666943D01*
X118595673Y-88930192D01*
X118939201Y-89072838D01*
X119311167Y-89073162D01*
X119654943Y-88931117D01*
X119918192Y-88668327D01*
X120060838Y-88324799D01*
X120061162Y-87952833D01*
X120004280Y-87815167D01*
X124794838Y-87815167D01*
X124936883Y-88158943D01*
X125199673Y-88422192D01*
X125543201Y-88564838D01*
X125915167Y-88565162D01*
X126258943Y-88423117D01*
X126522192Y-88160327D01*
X126664838Y-87816799D01*
X126664839Y-87815167D01*
X128604838Y-87815167D01*
X128746883Y-88158943D01*
X129009673Y-88422192D01*
X129353201Y-88564838D01*
X129725167Y-88565162D01*
X130068943Y-88423117D01*
X130332192Y-88160327D01*
X130474838Y-87816799D01*
X130475162Y-87444833D01*
X130333117Y-87101057D01*
X130070327Y-86837808D01*
X129726799Y-86695162D01*
X129354833Y-86694838D01*
X129011057Y-86836883D01*
X128747808Y-87099673D01*
X128605162Y-87443201D01*
X128604838Y-87815167D01*
X126664839Y-87815167D01*
X126665162Y-87444833D01*
X126523117Y-87101057D01*
X126260327Y-86837808D01*
X125916799Y-86695162D01*
X125544833Y-86694838D01*
X125201057Y-86836883D01*
X124937808Y-87099673D01*
X124795162Y-87443201D01*
X124794838Y-87815167D01*
X120004280Y-87815167D01*
X119919117Y-87609057D01*
X119656327Y-87345808D01*
X119312799Y-87203162D01*
X118940833Y-87202838D01*
X118597057Y-87344883D01*
X118333808Y-87607673D01*
X118191162Y-87951201D01*
X118190838Y-88323167D01*
X111073000Y-88323167D01*
X111073000Y-85656167D01*
X112983838Y-85656167D01*
X113125883Y-85999943D01*
X113388673Y-86263192D01*
X113732201Y-86405838D01*
X114104167Y-86406162D01*
X114447943Y-86264117D01*
X114675289Y-86037167D01*
X130382838Y-86037167D01*
X130524883Y-86380943D01*
X130787673Y-86644192D01*
X131131201Y-86786838D01*
X131503167Y-86787162D01*
X131846943Y-86645117D01*
X132110192Y-86382327D01*
X132252838Y-86038799D01*
X132252892Y-85976279D01*
X132305366Y-85954597D01*
X132568615Y-85691807D01*
X132711261Y-85348279D01*
X132711585Y-84976313D01*
X132569540Y-84632537D01*
X132306750Y-84369288D01*
X131963222Y-84226642D01*
X131591256Y-84226318D01*
X131247480Y-84368363D01*
X130984231Y-84631153D01*
X130841585Y-84974681D01*
X130841531Y-85037201D01*
X130789057Y-85058883D01*
X130525808Y-85321673D01*
X130383162Y-85665201D01*
X130382838Y-86037167D01*
X114675289Y-86037167D01*
X114711192Y-86001327D01*
X114853838Y-85657799D01*
X114854162Y-85285833D01*
X114712117Y-84942057D01*
X114449327Y-84678808D01*
X114105799Y-84536162D01*
X113733833Y-84535838D01*
X113390057Y-84677883D01*
X113126808Y-84940673D01*
X112984162Y-85284201D01*
X112983838Y-85656167D01*
X111073000Y-85656167D01*
X111073000Y-83458134D01*
X132590347Y-83458134D01*
X132732392Y-83801910D01*
X132995182Y-84065159D01*
X133338710Y-84207805D01*
X133710676Y-84208129D01*
X134054452Y-84066084D01*
X134317701Y-83803294D01*
X134460347Y-83459766D01*
X134460507Y-83276248D01*
X134588883Y-83586943D01*
X134851673Y-83850192D01*
X135195201Y-83992838D01*
X135567167Y-83993162D01*
X135910943Y-83851117D01*
X136174192Y-83588327D01*
X136316838Y-83244799D01*
X136317162Y-82872833D01*
X136175117Y-82529057D01*
X135912327Y-82265808D01*
X135568799Y-82123162D01*
X135196833Y-82122838D01*
X134853057Y-82264883D01*
X134589808Y-82527673D01*
X134447162Y-82871201D01*
X134447002Y-83054719D01*
X134318626Y-82744024D01*
X134055836Y-82480775D01*
X133712308Y-82338129D01*
X133340342Y-82337805D01*
X132996566Y-82479850D01*
X132733317Y-82742640D01*
X132590671Y-83086168D01*
X132590347Y-83458134D01*
X111073000Y-83458134D01*
X111073000Y-82265425D01*
X111186511Y-82341271D01*
X111760000Y-82455345D01*
X112333489Y-82341271D01*
X112819670Y-82016415D01*
X113030000Y-81701634D01*
X113240330Y-82016415D01*
X113726511Y-82341271D01*
X114300000Y-82455345D01*
X114873489Y-82341271D01*
X115359670Y-82016415D01*
X115570000Y-81701634D01*
X115780330Y-82016415D01*
X116266511Y-82341271D01*
X116840000Y-82455345D01*
X117413489Y-82341271D01*
X117899670Y-82016415D01*
X118110000Y-81701634D01*
X118320330Y-82016415D01*
X118806511Y-82341271D01*
X119380000Y-82455345D01*
X119953489Y-82341271D01*
X120439670Y-82016415D01*
X120650000Y-81701634D01*
X120860330Y-82016415D01*
X121346511Y-82341271D01*
X121920000Y-82455345D01*
X122493489Y-82341271D01*
X122979670Y-82016415D01*
X123190000Y-81701634D01*
X123400330Y-82016415D01*
X123886511Y-82341271D01*
X124460000Y-82455345D01*
X125033489Y-82341271D01*
X125519670Y-82016415D01*
X125730000Y-81701634D01*
X125940330Y-82016415D01*
X126426511Y-82341271D01*
X127000000Y-82455345D01*
X127573489Y-82341271D01*
X128059670Y-82016415D01*
X128270000Y-81701634D01*
X128480330Y-82016415D01*
X128966511Y-82341271D01*
X129540000Y-82455345D01*
X130113489Y-82341271D01*
X130599670Y-82016415D01*
X130924526Y-81530234D01*
X131038600Y-80956745D01*
X131038600Y-80587255D01*
X130924526Y-80013766D01*
X130887264Y-79958000D01*
X138352736Y-79958000D01*
X138315474Y-80013766D01*
G36*
X160147000Y-80645000D02*
X160167000Y-80645000D01*
X160167000Y-80899000D01*
X160147000Y-80899000D01*
X160147000Y-82258217D01*
X160379026Y-82379358D01*
X160394791Y-82376709D01*
X160834000Y-82165139D01*
X160834000Y-84647575D01*
X160571670Y-84254971D01*
X160085489Y-83930115D01*
X159512000Y-83816041D01*
X158938511Y-83930115D01*
X158452330Y-84254971D01*
X158242000Y-84569752D01*
X158031670Y-84254971D01*
X157545489Y-83930115D01*
X156972000Y-83816041D01*
X156398511Y-83930115D01*
X155912330Y-84254971D01*
X155696336Y-84578228D01*
X155638821Y-84455510D01*
X155206947Y-84061312D01*
X154791026Y-83889042D01*
X154559000Y-84010183D01*
X154559000Y-85217000D01*
X154579000Y-85217000D01*
X154579000Y-85471000D01*
X154559000Y-85471000D01*
X154559000Y-85491000D01*
X154305000Y-85491000D01*
X154305000Y-85471000D01*
X154285000Y-85471000D01*
X154285000Y-85217000D01*
X154305000Y-85217000D01*
X154305000Y-84010183D01*
X154072974Y-83889042D01*
X153971601Y-83931030D01*
X153971601Y-82915101D01*
X153908764Y-82599196D01*
X153908764Y-82599195D01*
X153729818Y-82331384D01*
X153432802Y-82034368D01*
X153459670Y-82016415D01*
X153670000Y-81701634D01*
X153880330Y-82016415D01*
X154366511Y-82341271D01*
X154940000Y-82455345D01*
X155513489Y-82341271D01*
X155999670Y-82016415D01*
X156210000Y-81701634D01*
X156420330Y-82016415D01*
X156906511Y-82341271D01*
X157480000Y-82455345D01*
X158053489Y-82341271D01*
X158539670Y-82016415D01*
X158746461Y-81706931D01*
X159117964Y-82122732D01*
X159645209Y-82376709D01*
X159660974Y-82379358D01*
X159893000Y-82258217D01*
X159893000Y-80899000D01*
X159873000Y-80899000D01*
X159873000Y-80645000D01*
X159893000Y-80645000D01*
X159893000Y-80625000D01*
X160147000Y-80625000D01*
X160147000Y-80645000D01*
X160147000Y-80645000D01*
G37*
X160147000Y-80645000D02*
X160167000Y-80645000D01*
X160167000Y-80899000D01*
X160147000Y-80899000D01*
X160147000Y-82258217D01*
X160379026Y-82379358D01*
X160394791Y-82376709D01*
X160834000Y-82165139D01*
X160834000Y-84647575D01*
X160571670Y-84254971D01*
X160085489Y-83930115D01*
X159512000Y-83816041D01*
X158938511Y-83930115D01*
X158452330Y-84254971D01*
X158242000Y-84569752D01*
X158031670Y-84254971D01*
X157545489Y-83930115D01*
X156972000Y-83816041D01*
X156398511Y-83930115D01*
X155912330Y-84254971D01*
X155696336Y-84578228D01*
X155638821Y-84455510D01*
X155206947Y-84061312D01*
X154791026Y-83889042D01*
X154559000Y-84010183D01*
X154559000Y-85217000D01*
X154579000Y-85217000D01*
X154579000Y-85471000D01*
X154559000Y-85471000D01*
X154559000Y-85491000D01*
X154305000Y-85491000D01*
X154305000Y-85471000D01*
X154285000Y-85471000D01*
X154285000Y-85217000D01*
X154305000Y-85217000D01*
X154305000Y-84010183D01*
X154072974Y-83889042D01*
X153971601Y-83931030D01*
X153971601Y-82915101D01*
X153908764Y-82599196D01*
X153908764Y-82599195D01*
X153729818Y-82331384D01*
X153432802Y-82034368D01*
X153459670Y-82016415D01*
X153670000Y-81701634D01*
X153880330Y-82016415D01*
X154366511Y-82341271D01*
X154940000Y-82455345D01*
X155513489Y-82341271D01*
X155999670Y-82016415D01*
X156210000Y-81701634D01*
X156420330Y-82016415D01*
X156906511Y-82341271D01*
X157480000Y-82455345D01*
X158053489Y-82341271D01*
X158539670Y-82016415D01*
X158746461Y-81706931D01*
X159117964Y-82122732D01*
X159645209Y-82376709D01*
X159660974Y-82379358D01*
X159893000Y-82258217D01*
X159893000Y-80899000D01*
X159873000Y-80899000D01*
X159873000Y-80645000D01*
X159893000Y-80645000D01*
X159893000Y-80625000D01*
X160147000Y-80625000D01*
X160147000Y-80645000D01*
M02*
